<?xml version="1.0" standalone="no"?>
<!DOCTYPE svg PUBLIC "-//W3C//DTD SVG 1.1//EN" "http://www.w3.org/Graphics/SVG/1.1/DTD/svg11.dtd" >
<svg xmlns="http://www.w3.org/2000/svg">
<metadata>Generated by IcoMoon</metadata>
<defs>
<font id="icomoon" horiz-adv-x="1024">
<font-face units-per-em="1024" ascent="896" descent="-128" />
<missing-glyph horiz-adv-x="1024" />
<glyph unicode="&#x20;" d="" />
<glyph unicode="&#xe600;" glyph-name="cart" d="M861.842 197.317l147.144 388.379q3.003 10.010-3.003 18.518t-17.017 8.508h-489.478q-9.009 0-15.015-6.006t-6.006-14.514 6.006-14.514 15.015-6.006h460.45l-131.128-346.338h-370.362l-140.137 562.549v1.001q-13.013 45.044-36.035 65.064-27.026 25.024-76.074 25.024h-136.133q-1.001 0-2.002-1.001-16.016 0-27.527-12.012t-11.511-28.027q0-17.017 12.012-29.028t29.028-12.012 29.028 12.012 12.012 29.028h95.093q33.032 0 49.048-14.014 14.014-13.013 24.023-47.046l163.159-658.643q6.006-22.022 10.010-34.033t16.016-28.027 29.028-25.024q-19.019-22.022-19.019-51.050 0-34.033 24.023-58.057t58.057-24.023 58.057 24.023 24.023 58.057q0 22.022-11.011 40.039h123.12q-10.010-18.018-10.010-40.039 0-34.033 23.523-58.057t57.556-24.023 58.057 24.023 24.023 58.057-24.023 57.556-58.057 23.523h-271.265q-20.020 0-32.532 3.503t-20.020 14.014-11.011 19.519-8.508 30.029l-14.014 56.055h374.366q14.014 0 19.019 13.013zM866.847-19.895q0-17.017-12.012-29.028t-29.028-12.012-29.028 12.012-12.012 29.028 12.012 28.528 29.028 11.511 29.028-11.511 12.012-28.528zM560.547 20.144q17.017 0 29.028-11.511t12.012-28.528-12.012-29.028-29.028-12.012-29.028 12.012-12.012 29.028 12.012 28.528 29.028 11.511z" />
<glyph unicode="&#xe601;" glyph-name="friends" d="M818.8-17.893q-5.005 82.080-67.065 133.13-35.034 28.027-119.116 61.060-31.030 12.012-46.045 19.019t-32.031 19.519-23.022 25.525q-2.002 23.022-2.002 62.061v9.009q13.013 13.013 25.024 38.037 14.014 28.027 19.019 56.055 10.010 5.005 18.018 15.015 15.015 20.020 20.020 56.055 3.003 30.029-13.013 50.049 13.013 46.045 17.017 89.087 6.006 78.076-22.022 124.121-27.026 43.042-79.077 53.052-30.029 38.037-106.104 38.037-114.111-2.002-164.16-68.066-59.058-79.077-22.022-235.23-17.017-21.021-13.013-51.050 4.004-36.035 20.020-56.055 8.008-10.010 18.018-15.015 5.005-26.025 18.018-53.052t27.026-41.040v-9.009q0-39.038-2.002-62.061-8.008-19.019-31.531-32.532t-70.569-31.531q-83.081-33.032-119.116-61.060-62.061-51.050-67.065-133.13-1.001-9.009 5.005-15.515t15.015-6.506h776.759q9.009 0 15.015 6.506t5.005 15.515zM45.044 1.125q9.009 49.048 50.049 82.080 30.029 24.023 108.106 55.054 28.027 11.011 42.542 17.517t34.534 17.517 31.531 24.524 18.518 30.53q1.001 3.003 1.001 5.005 2.002 27.026 2.002 69.067v19.019q0 12.012-11.011 18.018-8.008 6.006-21.021 32.031t-16.016 52.051q0 7.007-5.505 12.512t-12.512 5.505q-2.002 0-5.005 3.003t-6.506 12.512-5.505 24.524q-2.002 17.017 6.006 22.022 13.013 8.008 9.009 23.022-18.018 69.067-16.016 122.119 3.003 56.055 28.027 89.087 38.037 50.049 131.128 52.051 61.060 0 76.074-26.025 5.005-8.008 15.015-10.010 40.039-5.005 59.058-35.034 14.014-24.023 16.016-62.061t-3.503-69.568-15.515-59.558q-5.005-16.016 9.009-24.023 8.008-6.006 6.006-22.022-2.002-15.015-5.505-24.524t-6.506-12.512-5.005-3.003q-7.007 0-12.512-5.505t-5.505-12.512q-3.003-26.025-16.016-52.551t-20.020-31.531q-11.011-6.006-11.011-18.018v-19.019q0-42.041 2.002-69.067 0-2.002 1.001-5.005 7.007-17.017 18.518-30.53t31.531-24.524 34.534-17.517 41.541-17.517q78.076-31.030 108.106-55.054 40.039-33.032 50.049-82.080h-730.714zM1017.994 77.7q-6.006-6.506-15.015-6.506h-126.123q-8.008 0-14.014 6.006t-6.006 14.514 6.006 14.514 14.014 6.006h102.1q-8.008 37.036-39.038 63.062-26.025 20.020-90.088 46.045-24.023 9.009-36.035 14.514t-29.028 15.015-27.527 21.521-15.515 26.025q-1.001 3.003-1.001 6.006-2.002 22.022-2.002 58.057v16.016q0 12.012 10.010 18.018 7.007 5.005 17.017 26.526t12.012 41.541q1.001 7.007 6.006 12.012t12.012 6.006q9.009 3.003 12.012 31.030 1.001 11.011-4.004 15.015-14.014 9.009-8.008 24.023 7.007 23.022 12.012 49.548t3.503 58.057-13.513 50.549q-15.015 24.023-47.046 28.027-10.010 2.002-15.015 11.011-12.012 19.019-61.060 19.019-19.019 0-34.033-3.003-9.009-1.001-16.016 4.004t-8.008 13.513 3.503 15.015 13.513 8.508q19.019 3.003 40.039 3.003h1.001q64.063 0 90.088-32.031 45.044-9.009 68.066-45.044 39.038-64.063 5.005-181.177 14.014-18.018 11.011-43.042-4.004-31.030-18.018-49.048-6.006-8.008-14.014-13.013-11.011-50.049-37.036-78.076v-7.007q0-32.031 1.001-51.050 7.007-15.015 27.026-26.025t57.056-25.024q70.068-28.027 100.098-52.051 54.053-44.043 58.057-115.112 1.001-8.008-5.005-14.514z" />
<glyph unicode="&#xe602;" glyph-name="home" d="M1015.992 364.48q-6.006-6.006-15.015-6.006-8.008 0-14.014 6.006l-65.064 68.066v-524.512q0-8.008-6.006-14.014t-14.014-6.006h-266.26q-8.008 0-14.014 6.006t-6.006 14.514 6.006 14.514 14.014 6.006h245.239v545.533l-367.359 383.374-367.359-383.374v-545.533h224.219v306.299q0 8.008 6.006 14.014t15.015 6.006h244.239q9.009 0 15.015-6.006t6.006-14.514-6.006-14.514-15.015-6.006h-224.219v-306.299q0-8.008-6.006-14.014t-14.014-6.006h-266.26q-8.008 0-14.014 6.006t-6.006 14.014v524.512l-65.064-68.066q-6.006-6.006-14.514-6.006t-14.514 6.006-6.006 14.514 6.006 14.514l487.476 508.497q6.006 6.006 15.015 6.006t15.015-6.006l487.476-508.497q6.006-6.006 6.006-14.514t-6.006-14.514z" />
<glyph unicode="&#xe603;" glyph-name="me" d="M1025.001 383.499q0-97.095-35.535-187.183t-101.599-162.158h-1.001l-24.023-24.023q-6.006-5.005-14.014-5.505t-14.014 5.505q-31.030 27.026-114.111 60.059-28.027 11.011-42.041 17.517t-34.033 17.517-32.031 24.524-18.018 30.53q-1.001 3.003-1.001 6.006-3.003 26.025-2.002 69.067v19.019q0 12.012 10.010 18.018 8.008 5.005 20.52 31.531t15.515 52.551q1.001 7.007 6.006 12.012t13.013 6.006q2.002 0 4.504 3.003t6.506 12.512 6.006 24.524q2.002 17.017-6.006 22.022-14.014 9.009-9.009 24.023 15.015 45.044 19.019 92.090 5.005 65.064-17.017 100.098-18.018 30.029-59.058 35.034-10.010 2.002-15.015 10.010-14.014 26.025-76.074 26.025-93.091-2.002-132.129-52.051-25.024-34.033-27.026-89.087-3.003-53.052 15.015-123.12 4.004-15.015-9.009-23.022-8.008-6.006-6.006-22.022 2.002-15.015 6.006-24.524t6.506-12.512 4.504-3.003q8.008-1.001 13.013-6.006t6.006-12.012q3.003-26.025 16.016-52.551t21.021-31.531q10.010-6.006 10.010-18.018v-19.019q1.001-43.042-2.002-69.067 0-3.003-1.001-6.006-6.006-17.017-18.018-30.53t-32.031-24.524-34.534-17.517-41.541-17.517q-31.030-12.012-46.045-19.019-8.008-3.003-16.016 0t-11.511 10.51-0.5 15.515 11.011 11.011q16.016 8.008 48.047 20.020 31.030 12.012 46.545 19.019t32.532 19.519 23.022 25.525q2.002 24.023 2.002 62.061 0 3.003-1.001 10.010-14.014 14.014-26.526 41.040t-18.518 53.052q-10.010 5.005-18.018 15.015-15.015 20.020-19.019 56.055-4.004 31.030 13.013 51.050-38.037 157.153 22.022 236.231 50.049 66.065 164.16 68.066 76.074 0 106.104-38.037 53.052-10.010 79.077-53.052 19.019-31.030 22.022-77.576t-2.502-76.575-13.513-59.058q16.016-21.021 12.012-51.050-4.004-36.035-19.019-56.055-8.008-10.010-18.018-15.015-6.006-28.027-19.019-56.055-13.013-25.024-25.024-38.037v-10.010q-1.001-39.038 1.001-62.061 9.009-19.019 32.532-32.532t69.568-31.531q78.076-31.030 112.109-56.055l10.010 11.011q61.060 65.064 93.591 148.145t32.532 172.168q0 96.094-37.036 183.179-36.035 85.083-101.099 150.147t-150.147 101.099q-87.085 37.036-183.179 37.036t-183.179-37.036q-85.083-36.035-150.147-101.099t-101.099-150.147q-37.036-87.085-37.036-183.179t37.036-183.179q36.035-85.083 101.099-150.147t150.147-101.099q87.085-37.036 183.179-37.036 122.119 0 229.224 59.058 7.007 4.004 15.015 2.002t12.512-9.509 2.002-16.016-9.509-12.512q-116.113-64.063-249.243-64.063-104.102 0-199.195 40.039-92.090 39.038-163.159 110.108t-110.108 163.159q-40.039 95.093-40.039 199.195t40.039 199.195q39.038 92.090 110.108 163.159t163.159 110.108q95.093 40.039 199.195 40.039t199.195-40.039q92.090-39.038 163.159-110.108t110.108-163.159q40.039-95.093 40.039-199.195z" />
<glyph unicode="&#xe604;" glyph-name="settings" d="M1004.981 466.58l-132.129 22.022q-12.012 40.039-33.032 77.075l78.076 111.109q10.010 14.014-2.002 26.025l-87.085 86.084q-12.012 13.013-26.025 3.003l-109.107-79.077q-37.036 21.021-78.076 33.032l-23.022 132.129q-2.002 7.007-7.507 12.012t-13.513 5.005h-122.119q-7.007 0-13.013-5.005t-7.007-12.012l-22.022-132.129q-41.040-11.011-78.076-32.031l-108.106 78.076q-14.014 10.010-27.026-2.002l-86.084-87.085q-12.012-12.012-3.003-26.025l77.075-109.107q-21.021-38.037-33.032-79.077l-131.128-22.022q-7.007-1.001-12.012-7.007t-5.005-13.013v-123.12q0-7.007 5.005-12.512t12.012-7.507l131.128-23.022q12.012-41.040 33.032-79.077l-78.076-108.106q-10.010-14.014 2.002-26.025l87.085-87.085q12.012-12.012 26.025-2.002l110.108 77.075q37.036-21.021 78.076-33.032l22.022-131.128q1.001-8.008 7.007-12.512t13.013-4.504h122.119q8.008 0 13.513 4.504t7.507 11.511l23.022 133.13q41.040 12.012 78.076 32.031l110.108-77.075q14.014-10.010 26.025 2.002l87.085 87.085q12.012 12.012 2.002 26.025l-78.076 109.107q20.020 37.036 32.031 78.076l132.129 23.022q8.008 2.002 12.512 7.507t4.504 12.512v123.12q0 7.007-4.504 13.013t-12.512 7.007zM980.958 341.457l-128.125-23.022q-13.013-2.002-17.017-15.015-12.012-49.048-37.036-91.089-7.007-12.012 1.001-23.022l76.074-105.103-62.061-63.062-107.105 75.073q-11.011 8.008-23.022 1.001-42.041-26.025-91.089-38.037-13.013-3.003-15.015-16.016l-23.022-129.126h-88.086l-21.021 128.125q-2.002 13.013-15.015 16.016-49.048 13.013-92.090 38.037-11.011 7.007-22.022 0l-106.104-75.073-62.061 63.062 75.073 104.102q7.007 11.011 0 23.022-26.025 43.042-38.037 92.090-3.003 13.013-16.016 15.015l-127.124 23.022v88.086l127.124 21.021q13.013 2.002 16.016 15.015 13.013 49.048 39.038 92.090 6.006 11.011-1.001 22.022l-74.072 106.104 62.061 62.061 105.103-75.073q11.011-8.008 23.022-1.001 42.041 26.025 91.089 38.037 13.013 3.003 16.016 17.017l20.020 127.124h88.086l23.022-128.125q2.002-13.013 15.015-16.016 49.048-12.012 91.089-38.037 12.012-7.007 23.022 0l105.103 76.074 63.062-62.061-76.074-107.105q-7.007-11.011 0-22.022 25.024-43.042 37.036-91.089 4.004-13.013 17.017-15.015l128.125-21.021v-88.086zM695.679 384.499q0-9.009-6.006-15.015t-14.514-6.006-14.514 6.006-6.006 15.015q0 59.058-42.041 101.099t-101.099 42.041-101.099-42.041-42.041-101.099 42.041-101.099 101.099-42.041q51.050 0 90.088 32.031 6.006 5.005 14.514 4.004t14.014-7.507 4.504-15.015-8.008-13.513q-50.049-41.040-115.112-41.040-76.074 0-129.627 54.053t-53.552 130.127 53.552 129.627 129.627 53.552 130.127-53.552 54.053-129.627z" />
<glyph unicode="&#xe605;" glyph-name="app" d="M878.858 342.458h-327.32q-9.009 0-15.015-6.006t-6.006-15.015v-327.32q0-9.009 6.006-15.015t15.015-6.006h327.32q9.009 0 15.015 6.006t6.006 15.015v327.32q0 9.009-6.006 15.015t-15.015 6.006zM858.839 14.138h-287.281v287.281h287.281v-287.281zM431.421 342.458h-328.321q-8.008 0-14.014-6.006t-6.006-15.015v-327.32q0-9.009 6.006-15.015t14.014-6.006h328.321q8.008 0 14.014 6.006t6.006 15.015v327.32q0 9.009-6.006 15.015t-14.014 6.006zM410.401 14.138h-286.28v287.281h286.28v-287.281zM431.421 791.897h-328.321q-8.008 0-14.014-6.006t-6.006-14.014v-327.32q0-9.009 6.006-15.015t14.014-6.006h328.321q8.008 0 14.014 6.006t6.006 15.015v327.32q0 8.008-6.006 14.014t-14.014 6.006zM410.401 464.578h-286.28v286.28h286.28v-286.28zM966.944 629.739l-215.21 215.21q-6.006 6.006-14.514 6.006t-14.514-6.006l-214.209-215.21q-6.006-6.006-6.006-14.514t6.006-14.514l214.209-214.209q6.006-6.006 14.514-6.006t14.514 6.006l215.21 214.209q6.006 6.006 6.006 14.514t-6.006 14.514zM737.72 429.543l-186.182 186.182 186.182 185.181 185.181-185.181z" />
<glyph unicode="&#xe606;" glyph-name="browser" d="M982.96 596.707q-39.038 91.089-109.607 161.658t-162.659 109.607q-93.091 40.039-196.192 40.039h-4.004q-103.101 0-196.192-40.039-92.090-39.038-162.659-109.607t-109.607-161.658q-40.039-95.093-40.039-199.195t40.039-198.194q39.038-92.090 109.607-162.659t162.659-109.607q93.091-39.038 196.192-40.039h4.004q103.101 1.001 196.192 40.039 92.090 39.038 162.659 109.607t109.607 162.659q40.039 94.092 40.039 198.194t-40.039 199.195zM180.176 729.837q65.064 65.064 149.146 100.098 29.028 12.012 59.058 21.021-38.037-38.037-67.065-98.096-19.019-38.037-34.033-82.080-67.065 18.018-119.116 45.044zM80.078 580.691q24.023 56.055 60.059 103.101 59.058-32.031 136.133-52.051-27.026-100.098-29.028-213.208h-203.198q3.003 84.082 36.035 162.158zM140.137 111.233q-36.035 48.047-60.059 104.102-33.032 77.075-36.035 162.158h203.198q2.002-114.111 29.028-213.208-77.075-21.021-136.133-53.052zM329.322-34.91q-84.082 36.035-149.146 101.099-6.006 6.006-12.012 13.013 52.051 28.027 119.116 45.044 15.015-44.043 34.033-82.080 29.028-59.058 67.065-97.095-30.029 8.008-59.058 20.020zM492.481-69.944q-32.031 7.007-62.061 32.031-41.040 34.033-73.071 98.096-17.017 34.033-30.029 74.072 79.077 16.016 165.161 18.018v-222.217zM492.481 193.313q-92.090-2.002-177.173-20.020-25.024 95.093-27.026 204.199h204.199v-184.18zM492.481 418.533h-204.199q2.002 108.106 27.026 203.198 85.083-18.018 177.173-20.020v-183.179zM492.481 642.752q-86.084 2.002-165.161 18.018 13.013 40.039 30.029 74.072 32.031 64.063 73.071 98.096 30.029 26.025 62.061 32.031v-222.217zM695.679 829.934q84.082-35.034 149.146-100.098l12.012-14.014q-52.051-27.026-119.116-45.044-15.015 44.043-34.033 82.080-29.028 60.059-67.065 98.096 30.029-9.009 59.058-21.021zM532.52 864.969q32.031-6.006 62.061-32.031 41.040-34.033 73.071-98.096 17.017-34.033 30.029-74.072-79.077-16.016-165.161-18.018v222.217zM532.52 601.712q93.091 2.002 177.173 20.020 25.024-95.093 27.026-203.198h-204.199v183.179zM532.52 377.493h204.199q-2.002-109.107-27.026-204.199-85.083 18.018-177.173 20.020v184.18zM594.581-37.913q-30.029-25.024-62.061-32.031v222.217q86.084-2.002 165.161-18.018-13.013-40.039-30.029-74.072-32.031-64.063-73.071-98.096zM844.825 66.189q-65.064-65.064-149.146-101.099-29.028-12.012-59.058-20.020 38.037 38.037 67.065 97.095 19.019 38.037 34.033 82.080 67.065-17.017 119.116-45.044-6.006-7.007-12.012-13.013zM944.923 215.334q-24.023-56.055-60.059-104.102-59.058 32.031-136.133 53.052 27.026 99.097 29.028 213.208h203.198q-3.003-85.083-36.035-162.158zM777.76 418.533q-2.002 113.11-29.028 213.208 77.075 20.020 136.133 52.051 36.035-47.046 60.059-103.101 33.032-78.076 36.035-162.158h-203.198z" />
<glyph unicode="&#xe607;" glyph-name="card" d="M430.42 239.358h-306.299q2.002 25.024 18.518 41.040t36.035 22.522 38.037 15.515 23.523 21.021v34.033q-4.004 3.003-10.010 15.515t-8.008 23.523q-11.011 1.001-13.013 23.022-1.001 12.012 6.006 17.017-28.027 112.109 62.061 114.111 27.026 0 35.034-15.015 18.018-2.002 26.526-14.514t9.009-29.529-2.002-30.53-5.505-24.524q7.007-5.005 6.006-17.017-3.003-22.022-14.014-23.022-1.001-11.011-7.007-23.523t-10.010-15.515q0-26.025 1.001-34.033 4.004-12.012 22.522-21.021t38.037-15.515 36.035-22.522 17.517-41.040zM920.899 464.077q0-8.508-6.006-14.514t-14.014-6.006h-368.36q-8.008 0-14.014 6.006t-6.006 14.514 6.006 14.514 14.014 6.006h368.36q8.008 0 14.014-6.006t6.006-14.514zM920.899 361.977q0-8.508-6.006-14.514t-14.014-6.006h-368.36q-8.008 0-14.014 6.006t-6.006 14.514 6.006 14.514 14.014 6.006h368.36q8.008 0 14.014-6.006t6.006-14.514zM920.899 259.878q0-8.508-6.006-14.514t-14.014-6.006h-368.36q-8.008 0-14.014 6.006t-6.006 14.514 6.006 14.514 14.014 6.006h368.36q8.008 0 14.014-6.006t6.006-14.514zM1022.999 647.757v-571.558q0-26.025-18.018-43.543t-43.042-17.517h-82.080q-8.008 0-14.014 5.505t-6.006 14.014 6.006 14.514 14.014 6.006h82.080q8.008 0 14.014 6.006t6.006 15.015v571.558q0 9.009-6.006 14.514t-14.014 5.505h-449.439q-8.008 0-14.014 6.006t-6.006 15.015v41.040q0 8.008-6.006 14.014t-15.015 6.006h-408.399q-8.008 0-14.014-6.006t-6.006-14.014v-653.638q0-9.009 6.006-15.015t14.014-6.006h102.1v62.061q0 8.008 6.006 14.014t15.015 6.006h81.079q9.009 0 15.015-6.006t6.006-14.514-6.006-14.514-15.015-6.006h-61.060v-61.060q0-9.009-6.006-14.514t-14.014-5.505h-123.12q-25.024 0-43.042 17.517t-18.018 43.543v653.638q0 25.024 18.018 43.042t43.042 18.018h408.399q26.025 0 43.543-18.018t17.517-43.042v-21.021h429.419q25.024 0 43.042-18.018t18.018-43.042zM859.84 116.738q0-8.508-6.006-14.514t-15.015-6.006h-61.060v-61.060q0-9.009-6.006-14.514t-14.014-5.505h-449.439q-9.009 0-15.015 5.505t-6.006 14.014 6.006 14.514 15.015 6.006h428.418v62.061q0 8.008 6.006 14.014t15.015 6.006h81.079q9.009 0 15.015-6.006t6.006-14.514z" />
<glyph unicode="&#xe608;" glyph-name="check" horiz-adv-x="1026" d="M427.417 3.127q-10.010 0-18.018 6.006l-312.305 286.28-51.050-63.062q-7.007-9.009-17.517-10.010t-19.019 5.505-9.509 17.017 6.006 19.519l68.066 85.083q7.007 8.008 18.018 9.009t19.019-6.006l313.306-287.281 555.543 694.678q7.007 9.009 17.517 10.010t18.518-5.505 9.509-17.017-5.505-19.519l-572.559-715.699q-7.007-9.009-18.018-9.009h-2.002z" />
<glyph unicode="&#xe609;" glyph-name="code" d="M342.334 846.951h-245.239q-9.009 0-15.015-6.006t-6.006-15.015v-245.239q0-9.009 6.006-15.015t15.015-6.006h245.239q8.008 0 14.014 6.006t6.006 15.015v245.239q0 9.009-6.006 15.015t-14.014 6.006zM321.314 600.711h-204.199v205.2h204.199v-205.2zM927.906 846.951h-245.239q-8.008 0-14.014-6.006t-6.006-15.015v-245.239q0-9.009 6.006-15.015t14.014-6.006h245.239q9.009 0 15.015 6.006t6.006 15.015v245.239q0 9.009-6.006 15.015t-15.015 6.006zM907.887 600.711h-204.199v205.2h204.199v-205.2zM927.906 257.375h-245.239q-8.008 0-14.014-6.006t-6.006-15.015v-265.259q0-9.009 6.006-15.015t14.014-6.006h245.239q9.009 0 15.015 6.006t6.006 15.015v265.259q0 9.009-6.006 15.015t-15.015 6.006zM907.887-8.885h-204.199v225.22h204.199v-225.22zM948.927 468.081q0-8.508-6.006-14.514t-15.015-6.006h-830.811q-9.009 0-15.015 6.006t-6.006 14.514 6.006 14.514 15.015 6.006h830.811q9.009 0 15.015-6.006t6.006-14.514zM482.471 822.928v-242.237q0-9.009-6.006-15.015t-14.514-6.006-14.514 6.006-6.006 15.015v242.237q0 8.008 6.006 14.014t14.514 6.006 14.514-6.006 6.006-14.014zM589.576 822.928v-242.237q0-9.009-6.006-15.015t-14.514-6.006-14.514 6.006-6.006 15.015v242.237q0 8.008 6.006 14.014t14.514 6.006 14.514-6.006 6.006-14.014zM426.416 236.355v-268.262q0-8.008-6.006-14.014t-14.514-6.006-14.514 6.006-6.006 14.014v268.262q0 9.009 6.006 15.015t14.514 6.006 14.514-6.006 6.006-15.015zM557.544 363.479v-395.386q0-8.008-6.006-14.014t-14.514-6.006-14.514 6.006-6.006 14.014v395.386q0 8.008 6.006 14.014t14.514 6.006 14.514-6.006 6.006-14.014zM166.162 363.479v-395.386q0-8.008-6.006-14.014t-14.514-6.006-14.514 6.006-6.006 14.014v395.386q0 8.008 6.006 14.014t14.514 6.006 14.514-6.006 6.006-14.014zM296.289 236.355v-268.262q0-8.008-6.006-14.014t-14.514-6.006-14.514 6.006-6.006 14.014v268.262q0 9.009 6.006 15.015t14.514 6.006 14.514-6.006 6.006-15.015zM948.927 362.978q0-8.508-6.006-14.514t-15.015-6.006h-245.239q-8.008 0-14.014 6.006t-6.006 14.514 6.006 14.514 14.014 6.006h245.239q9.009 0 15.015-6.006t6.006-14.514zM431.421 362.978q0-8.508-6.006-14.514t-15.015-6.006h-137.134q-8.008 0-14.014 6.006t-6.006 14.514 6.006 14.514 14.014 6.006h137.134q9.009 0 15.015-6.006t6.006-14.514z" />
<glyph unicode="&#xe60a;" glyph-name="remove" d="M854.835 609.719l-34.033-664.649q-2.002-21.021-18.018-36.035t-37.036-15.015h-475.464q-22.022 0-38.037 15.015t-17.017 36.035v1.001l-35.034 663.648q-1.001 9.009 5.005 15.015t14.514 6.506 14.514-5.005 7.007-14.514l34.033-663.648q1.001-5.005 5.505-9.009t9.509-4.004h475.464q5.005 0 9.009 4.004t5.005 9.009l34.033 663.648q1.001 9.009 7.507 14.514t14.514 5.005 14.014-6.506 5.005-15.015zM936.915 754.361q0-8.508-6.006-14.514t-14.014-6.006h-266.26q-9.009 0-15.015 6.006t-6.006 14.014v62.061q0 8.008-6.006 14.014t-14.014 6.006h-164.16q-8.008 0-14.014-6.006t-6.006-14.014v-62.061q0-8.008-6.006-14.014t-15.015-6.006h-265.259q-9.009 0-15.015 6.006t-6.006 14.514 6.006 14.514 15.015 6.006h245.239v41.040q0 25.024 18.018 43.042t43.042 18.018h164.16q25.024 0 43.042-18.018t18.018-43.042v-41.040h246.24q8.008 0 14.014-6.006t6.006-14.514zM640.626 590.701v-573.56q0-8.008-6.006-14.014t-14.514-6.006-14.514 6.006-6.006 14.014v573.56q0 8.008 6.006 14.014t14.514 6.006 14.514-6.006 6.006-14.014zM456.446 590.701v-573.56q0-8.008-6.006-14.014t-14.514-6.006-14.514 6.006-6.006 14.014v573.56q0 8.008 6.006 14.014t14.514 6.006 14.514-6.006 6.006-14.014z" />
<glyph unicode="&#xe60b;" glyph-name="download" d="M1024 384.499q0-75.073-53.552-128.125t-128.626-53.052h-185.181q-9.009 0-15.015 6.006t-6.006 14.514 6.006 14.514 15.015 6.006h185.181q58.057 0 99.597 41.040t41.541 99.097-41.040 99.597-99.097 41.541h-1.001q-10.010 0-16.016 7.007t-5.005 16.016q2.002 16.016 2.002 28.027 0 95.093-67.065 161.658t-161.157 66.565q-72.070 0-131.128-42.041-57.056-41.040-82.080-107.105-4.004-10.010-15.015-12.512t-19.019 5.505q-29.028 30.029-71.57 30.029t-72.571-30.029-30.029-72.070v-5.005q1.001-16.016-15.015-20.020-50.049-14.014-82.080-56.055t-32.031-95.093q0-65.064 45.544-110.608t110.608-45.544h170.166q8.008 0 14.014-6.006t6.006-14.514-6.006-14.514-14.014-6.006h-170.166q-82.080 0-139.636 57.556t-57.556 139.636q0 67.065 41.040 121.118 35.034 45.044 88.086 64.063 4.004 56.055 45.544 95.093t97.595 39.038q43.042 0 79.077-24.023 30.029 61.060 85.083 100.098 70.068 50.049 155.152 50.049 111.109 0 190.186-79.077t79.077-190.186q0-5.005-1.001-11.011 68.066-8.008 114.612-59.558t46.545-121.619zM629.615 86.208l-102.1-102.1q-6.006-6.006-14.514-6.006t-14.514 6.006l-102.1 102.1q-6.006 6.006-6.006 14.514t6.006 14.514 14.514 6.006 14.514-6.006l67.065-67.065v359.351q0 8.008 6.006 14.014t14.514 6.006 14.514-6.006 6.006-14.014v-359.351l67.065 67.065q6.006 6.006 14.514 6.006t14.514-6.006 6.006-14.514-6.006-14.514z" />
<glyph unicode="&#xe60c;" glyph-name="edit" d="M236.231-15.892l-3.003-1.001h464.454q9.009 0 15.015-6.006t6.006-14.514-6.006-14.514-15.015-6.006h-621.607q-2.002 0-3.003 1.001h-2.002l-1.001 1.001q-1.001 0-2.002 1.001-1.001 0-2.002 1.001l-4.004 4.004q-1.001 2.002-2.002 3.003t-1.001 2.002v1.001q0 1.001-1.001 1.001v11.011h1.001v1.001l40.039 152.149q2.002 5.005 6.006 9.009l633.619 627.613q6.006 6.006 14.514 6.006t14.514-6.006 6.006-14.514-6.006-14.514l-629.615-623.609-31.030-113.11 114.111 30.029 629.615 623.609q6.006 6.006 14.514 6.006t14.514-6.006 6.006-14.514-6.006-14.514l-634.62-627.613q-3.003-4.004-9.009-5.005zM922.901 659.768l4.004 4.004q4.004 4.004 8.008 9.009l4.004 4.004q30.029 29.028 30.029 70.068t-29.529 70.068-70.569 29.028-70.068-29.028l-17.017-17.017zM58.057-36.912v0zM58.057-33.909v0zM58.057-39.915v0zM59.058-31.907q-1.001 0-1.001-1.001v1.001h1.001z" />
<glyph unicode="&#xe60d;" glyph-name="menu" d="M916.895 604.715h-778.761q-8.008 0-14.014 6.006t-6.006 14.514 6.006 14.514 14.014 6.006h778.761q9.009 0 15.015-6.006t6.006-14.514-6.006-14.514-15.015-6.006zM937.916 400.015q0-8.508-6.006-14.514t-15.015-6.006h-778.761q-8.008 0-14.014 6.006t-6.006 14.514 6.006 14.514 14.014 6.006h778.761q9.009 0 15.015-6.006t6.006-14.514zM916.895 154.275h-778.761q-8.008 0-14.014 6.006t-6.006 14.514 6.006 14.514 14.014 6.006h778.761q9.009 0 15.015-6.006t6.006-14.514-6.006-14.514-15.015-6.006z" />
<glyph unicode="&#xe60e;" glyph-name="star" d="M970.948 469.583l-241.236-196.192 80.078-300.293q2.002-9.009-2.502-16.016t-12.512-9.009q-2.002-1.001-5.005-1.001-16.016 0-20.020 15.015l-83.081 313.306q-4.004 13.013 7.007 22.022l210.205 170.166-271.265 15.015q-13.013 1.001-18.018 13.013l-97.095 253.247-98.096-253.247q-4.004-12.012-18.018-13.013l-270.264-15.015 210.205-170.166q10.010-9.009 7.007-22.022l-70.068-262.256 228.223 148.145q11.011 7.007 22.022 0l113.11-73.071q7.007-5.005 8.508-13.013t-3.003-15.515-13.013-9.009-15.515 3.503l-101.099 65.064-261.255-169.165q-12.012-7.007-23.523 1.001t-7.507 22.022l80.078 300.293-241.236 196.192q-11.011 9.009-7.007 22.522t18.018 13.513l311.304 17.017 112.109 290.283q5.005 13.013 19.019 13.013t19.019-13.013l112.109-290.283 310.303-17.017q14.014 0 18.518-13.513t-6.506-22.522z" />
<glyph unicode="&#xe60f;" glyph-name="uniE60F" d="M1024 691.8q-3.003-28.027-22.022-42.041-11.011-8.008-101.599-68.066t-107.605-70.068q-31.030-20.020-78.076 5.005-19.019 10.010-94.092 53.052-63.062-44.043-157.153-137.134-108.106-108.106-143.14-166.162-4.004-7.007-12.512-9.509t-15.515 2.002-9.509 12.512 2.502 16.016q35.034 59.058 149.146 174.17 116.113 115.112 174.17 149.146 11.011 6.006 21.021 0 91.089-51.050 104.102-58.057 26.025-14.014 37.036-7.007 16.016 10.010 106.104 70.068t101.099 67.065q5.005 4.004 5.505 14.014t-8.508 26.025q-25.024 35.034-66.065 78.076-51.050 53.052-68.066 53.052-67.065-2.002-146.143-39.038-155.152-74.072-347.339-266.26t-266.26-346.338q-37.036-80.078-39.038-147.144 0-17.017 53.052-68.066 43.042-41.040 78.076-66.065 16.016-9.009 26.025-8.508t14.014 5.505q8.008 12.012 68.066 102.6t69.067 104.602q5.005 9.009-4.004 31.030-1.001 3.003-3.003 6.006-4.004 8.008-1.501 16.016t10.010 12.012 15.515 1.501 12.012-10.51q3.003-4.004 5.005-9.009 17.017-41.040 1.001-68.066-9.009-15.015-69.067-105.603t-70.068-104.602q-14.014-20.020-42.041-22.022h-6.006q-25.024 0-48.047 16.016-39.038 27.026-84.082 70.068-66.065 64.063-65.064 98.096v1.001q2.002 75.073 43.042 162.158 77.075 161.157 274.268 358.35t358.35 274.268q88.086 41.040 162.158 43.042h1.001q34.033 1.001 98.096-65.064 44.043-45.044 70.068-84.082 19.019-26.025 16.016-54.053z" />
<glyph unicode="&#xe610;" glyph-name="caret" d="M942.921 699.807l-430.42-632.618-430.42 632.618h860.841z" />
<glyph unicode="&#xe612;" glyph-name="up" horiz-adv-x="1027" d="M999.977 127.248q-10.010 0-17.017 7.007l-469.458 449.439-469.458-449.439q-8.008-7.007-18.518-7.007t-18.018 7.507-7.007 18.018 7.507 18.518l487.476 466.456q7.007 8.008 17.517 8.008t17.517-8.008l487.476-466.456q8.008-8.008 8.008-18.518t-7.007-17.517q-8.008-8.008-19.019-8.008z" />
<glyph unicode="&#xe613;" glyph-name="right" d="M271.265 895.999q11.011 0 18.018-8.008l475.464-485.474q7.007-8.008 7.007-18.518t-7.007-17.517l-475.464-486.475q-7.007-7.007-18.018-7.507t-18.518 7.007-7.507 18.018 8.008 18.518l457.447 468.457-457.447 468.457q-8.008 7.007-8.008 17.517t7.507 18.018 18.518 7.507z" />
<glyph unicode="&#xe614;" glyph-name="left" d="M746.729-128.001q-11.011 0-19.019 8.008l-474.463 486.475q-8.008 7.007-8.008 17.517t8.008 18.518l474.463 485.474q8.008 8.008 18.518 8.008t18.018-7.507 7.507-18.018-7.007-17.517l-457.447-468.457 457.447-468.457q7.007-8.008 7.007-18.518t-7.507-18.018-17.517-7.507z" />
<glyph unicode="&#xe615;" glyph-name="small" d="M964.942 587.698q-37.036 88.086-104.602 155.652t-155.652 104.602q-91.089 39.038-191.187 39.038t-191.187-39.038q-88.086-37.036-155.652-104.602t-104.602-155.652q-39.038-91.089-39.038-191.187t39.038-191.187q37.036-87.085 104.602-155.152t155.652-105.103q91.089-39.038 191.187-39.038t191.187 39.038q88.086 37.036 155.652 105.103t104.602 155.152q39.038 91.089 39.038 191.187t-39.038 191.187zM927.906 221.34q-34.033-80.078-96.594-142.139t-142.639-96.094q-84.082-36.035-175.171-36.035t-175.171 36.035q-80.078 34.033-142.639 96.094t-96.594 142.139q-35.034 84.082-35.034 175.171t35.034 175.171q35.034 80.078 97.095 142.639t142.139 96.594q84.082 35.034 175.171 35.034t175.171-35.034q80.078-34.033 142.639-96.594t96.594-142.639q35.034-84.082 35.034-175.171t-35.034-175.171zM795.777 262.38q-27.026-38.037-76.074-76.074-42.041-33.032-88.086-52.051-58.057-24.023-118.115-24.023t-118.115 24.023q-46.045 19.019-88.086 52.051-49.048 38.037-76.074 76.074-5.005 7.007-3.503 15.015t8.508 13.013 15.015 3.503 13.013-7.507q5.005-8.008 18.018-22.022 24.023-25.024 51.050-46.045 38.037-30.029 78.076-46.045 50.049-21.021 102.1-21.021t102.1 21.021q40.039 16.016 78.076 46.045 44.043 33.032 69.067 68.066 5.005 6.006 13.013 7.507t15.015-3.503 8.508-13.013-3.503-15.015zM737.72 458.071q0-25.525-17.517-43.543t-43.042-18.018-43.543 18.018-18.018 43.543 18.018 43.543 43.543 18.018 43.042-18.018 17.517-43.543zM411.402 458.071q0-25.525-18.018-43.543t-43.543-18.018-43.042 18.018-17.517 43.543 17.517 43.543 43.042 18.018 43.543-18.018 18.018-43.543z" />
<glyph unicode="&#xe616;" glyph-name="computer" d="M971.949 779.886h-918.897q-9.009 0-15.015-6.006t-6.006-15.015v-612.598q0-8.008 6.006-14.014t15.015-6.006h918.897q9.009 0 15.015 6.006t6.006 14.014v612.598q0 9.009-6.006 15.015t-15.015 6.006zM951.93 167.287h-878.858v571.558h878.858v-571.558zM788.77 64.687q0-8.508-6.006-14.514t-15.015-6.006h-510.499q-9.009 0-15.015 6.006t-6.006 14.514 6.006 14.514 15.015 6.006h510.499q9.009 0 15.015-6.006t6.006-14.514z" />
<glyph unicode="&#xe617;" glyph-name="message" d="M997.975 453.066q0-83.582-38.037-160.657-36.035-73.071-101.099-129.126t-149.146-87.085q-87.085-32.031-182.178-32.031-8.008 0-14.014 6.006t-6.006 14.514 6.006 14.514 14.014 6.006q88.086 0 168.164 29.028 77.075 28.027 136.133 80.078 60.059 52.051 92.59 118.616t32.532 139.636-32.532 140.137-92.59 119.116q-59.058 51.050-136.133 79.077-80.078 30.029-168.164 30.029t-168.164-30.029q-77.075-28.027-136.133-79.077-60.059-52.051-92.090-119.116t-32.031-140.137q0-89.087 47.046-167.163 46.045-77.075 127.124-128.125 9.009-6.006 9.009-17.017 0-58.057-42.041-133.13 51.050 8.008 98.096 40.039 32.031 22.022 51.050 45.044 5.005 7.007 13.513 7.507t15.015-4.504 7.507-13.513-4.004-15.515q-21.021-26.025-59.058-52.051-75.073-52.051-160.156-52.051h-1.001q-13.013 1.001-18.518 12.012t1.501 21.021q35.034 50.049 50.049 102.1 5.005 17.017 6.006 32.031-82.080 55.054-129.126 135.132-53.052 88.086-53.052 188.184 0 84.082 37.036 160.156 36.035 74.072 101.099 130.127t149.146 87.085q87.085 31.030 182.178 31.030t182.178-31.030q84.082-31.030 149.146-87.085t101.099-130.127q38.037-76.074 38.037-159.656z" />
<glyph unicode="&#xe618;" glyph-name="gift" d="M980.958 629.739h-206.201q20.020 9.009 37.036 21.021 67.065 47.046 67.065 122.119 0 41.040-22.022 68.066-29.028 34.033-86.084 34.033-58.057 0-102.1-45.044-25.024-24.023-60.059-86.084-15.015-25.024-22.522-37.036t-20.52-27.527-26.025-22.522-28.027-7.007q-16.016 0-29.028 7.007t-25.525 22.522-20.52 27.527-22.022 37.036q-36.035 62.061-60.059 86.084-44.043 45.044-102.1 45.044-57.056 0-86.084-34.033-23.022-27.026-23.022-68.066 0-75.073 67.065-122.119 17.017-12.012 37.036-21.021h-206.201q-8.008 0-14.014-6.006t-6.006-14.014v-184.18q0-9.009 6.006-15.015t14.014-6.006h21.021v-489.478q0-9.009 6.006-15.015t14.014-6.006h857.838q9.009 0 15.015 6.006t6.006 15.015v489.478h20.020q9.009 0 15.015 6.006t6.006 15.015v184.18q0 8.008-6.006 14.014t-15.015 6.006zM388.379-64.939h-285.279v469.458h187.183q8.008 0 14.014 6.006t6.006 14.514-6.006 14.514-14.014 6.006h-228.223v143.14h326.319v-653.638zM348.34 649.759q-66.065 0-114.111 34.033-50.049 35.034-50.049 89.087 0 61.060 68.066 61.060 22.022 0 40.54-8.008t34.534-27.026 25.525-33.032 25.525-43.042q31.030-52.051 49.048-73.071h-79.077zM592.579-64.939h-163.159v653.638h163.159v-653.638zM643.629 722.83q16.016 29.028 25.525 43.042t26.025 33.032 34.534 27.026 41.040 8.008q67.065 0 67.065-61.060 0-54.053-49.048-89.087-48.047-34.033-114.111-34.033h-80.078q19.019 21.021 49.048 73.071zM960.938 445.559h-244.239q-9.009 0-15.015-6.006t-6.006-14.514 6.006-14.514 15.015-6.006h203.198v-469.458h-286.28v653.638h327.32v-143.14z" />
<glyph unicode="&#xe619;" glyph-name="clock" d="M573.56 383.499q0-25.024-18.018-43.042t-43.042-18.018q-14.014 0-27.026 6.006l-122.119-123.12q-6.006-6.006-14.514-6.006t-14.514 6.006-6.006 14.514 6.006 14.514l123.12 123.12q-6.006 12.012-6.006 26.025 0 20.020 11.011 36.035t30.029 22.022v331.324q0 9.009 6.006 15.015t14.014 6.006 14.014-6.006 6.006-15.015v-331.324q19.019-6.006 30.029-22.022t11.011-36.035zM1025.001 383.499q0-139.136-70.068-259.253-5.005-7.007-13.013-9.509t-15.515 2.002-9.509 12.512 2.002 16.016q65.064 110.108 65.064 238.233 0 96.094-37.036 183.179-36.035 85.083-101.099 150.147t-150.147 101.099q-87.085 37.036-183.179 37.036t-183.179-37.036q-85.083-36.035-150.147-101.099t-101.099-150.147q-37.036-87.085-37.036-183.179t37.036-183.179q36.035-85.083 101.099-150.147t150.147-101.099q87.085-37.036 183.179-37.036 88.086 0 170.667 32.031t147.644 91.089q6.006 6.006 14.514 5.505t14.014-6.506 5.505-14.514-7.007-14.514q-71.069-65.064-160.156-99.597t-185.181-34.534q-104.102 0-199.195 40.039-92.090 39.038-163.159 110.108t-110.108 163.159q-40.039 95.093-40.039 199.195t40.039 199.195q39.038 92.090 110.108 163.159t163.159 110.108q95.093 40.039 199.195 40.039t199.195-40.039q92.090-39.038 163.159-110.108t110.108-163.159q40.039-95.093 40.039-199.195z" />
<glyph unicode="&#xe61a;" glyph-name="picture" d="M802.784 610.22q0-25.525-18.018-43.543t-43.543-18.018-43.543 18.018-18.018 43.543 18.018 43.543 43.543 18.018 43.543-18.018 18.018-43.543zM983.961 246.365v543.531h-942.921v-779.761h942.921v44.043l-287.281 300.293-149.146-149.146q-6.006-6.006-14.514-6.006t-14.514 6.006-6.006 14.514 6.006 14.514l48.047 48.047-198.194 216.211-227.222-213.208q-6.006-6.006-14.514-6.006t-14.514 6.506-5.505 15.015 6.506 13.513l242.237 228.223q6.006 6.006 14.514 5.505t14.514-6.506l211.206-230.225 87.085 87.085q6.006 6.006 14.514 6.006t14.514-6.006l307.3-321.314q6.006-6.006 6.006-14.014v-73.071q0-9.009-6.006-15.015t-14.014-6.006h-984.962q-8.008 0-14.014 6.006t-6.006 15.015v819.801q0 9.009 6.006 15.015t14.014 6.006h984.962q8.008 0 14.014-6.006t6.006-15.015v-563.55q0-9.009-6.006-15.015t-14.514-6.006-14.514 6.006-6.006 15.015z" />
<glyph unicode="&#xe61b;" glyph-name="share" d="M263.257 421.536q-2.002 2.002-3.003 4.004t-2.002 5.005q2.002-4.004 5.005-9.009zM762.745 133.254q0-1.001-0.5-1.501t-0.5-1.501q0 1.001 1.001 3.003zM865.846 243.362q-42.041 0-77.576-21.521t-55.554-56.555l-422.413 168.164q5.005 19.019 5.005 39.038 0 28.027-10.010 54.053l360.352 195.191q21.021-28.027 53.052-44.543t69.067-16.516q63.062 0 108.106 44.543t45.044 108.106-45.044 108.106-108.106 44.543-108.106-44.543-45.044-108.606q0-28.027 11.011-55.054l-360.352-195.191q-21.021 29.028-53.552 46.045t-69.568 17.017q-63.062 0-108.106-44.543t-45.044-108.106 45.044-108.106 108.106-44.543q41.040 0 76.074 20.52t56.055 54.553l423.413-168.164q-5.005-18.018-5.005-37.036 0-63.062 45.044-108.106t108.106-45.044 108.106 45.044 45.044 108.106-45.044 108.106-108.106 45.044zM787.769 824.93q46.045 0 79.077-32.532t33.032-79.077-33.032-79.077-79.077-32.532-79.077 32.532-33.032 79.077 33.032 79.077 79.077 32.532zM162.158 261.379q-46.045 0-79.077 32.532t-33.032 79.077 33.032 79.077 79.077 32.532q30.029 0 55.554-14.514t40.54-39.539q2.002-4.004 5.005-9.009 11.011-23.022 11.011-49.048 0-46.045-33.032-78.577t-79.077-32.532zM865.846-21.897q-46.045 0-79.077 33.032t-33.032 79.077q0 21.021 8.008 40.039 0 1.001 1.001 3.003 12.012 31.030 40.54 50.049t62.561 19.019q46.045 0 79.077-33.032t33.032-79.077-33.032-79.077-79.077-33.032z" />
<glyph unicode="&#xe61c;" glyph-name="refresh" d="M926.905 659.768q0-3.003-2.002-5.505t-5.005-2.502h-188.184v-49.048h188.184q23.022 0 39.539 17.017t16.516 40.039v187.183h-49.048v-187.183zM512.5-79.954q-94.092 0-179.675 36.536t-148.145 99.097-99.097 148.145-36.536 179.675 36.536 179.675 99.097 148.145 148.145 99.097 179.675 36.536q95.093 0 181.677-37.537t151.648-105.603q44.043-44.043 62.061-67.065l39.038 30.029q-21.021 26.025-66.065 71.069-71.069 75.073-166.663 116.614t-201.697 41.541q-104.102 0-198.694-40.54t-163.66-109.607-109.607-163.66-40.54-198.694 40.54-198.694 109.607-163.66 163.66-109.607 198.694-40.54 198.694 40.54 163.66 109.607 109.607 163.66 40.54 198.694h-49.048q0-94.092-36.536-179.675t-99.097-148.145-148.145-99.097-179.675-36.536z" />
<glyph unicode="&#xe61d;" glyph-name="search" d="M760.743 643.753q-26.025 63.062-74.072 111.109t-111.109 74.072q-64.063 27.026-134.631 27.026t-135.632-27.026q-62.061-26.025-110.108-74.072t-74.072-111.109q-28.027-64.063-28.027-134.631t28.027-135.632q26.025-62.061 74.072-110.108t110.108-74.072q65.064-28.027 135.632-28.027t134.631 28.027q63.062 26.025 111.109 74.072t74.072 110.108q27.026 65.064 27.026 135.632t-27.026 134.631zM657.142 292.41q-89.587-90.088-216.211-90.088t-216.712 90.088-90.088 216.712 90.088 216.211 216.712 89.587 216.211-89.587 89.587-216.211-89.587-216.712zM955.934-25.901q-6.006-6.006-14.514-6.006t-14.514 6.006l-194.19 193.189q-6.006 6.006-6.006 14.514t6.006 14.514 14.514 6.006 14.514-6.006l194.19-193.189q6.006-6.006 6.006-14.514t-6.006-14.514z" />
<glyph unicode="&#xe622;" glyph-name="theater" d="M450 94.999l182 92q12 6 12 14t-12 14l-182 90q-12 6-20.5 0.5t-8.5-18.5v-175q0-13 8.5-18t20.5 1zM889 547.999h-608l610 121q6 1 10 6.5t2 12.5l-2 13-1 1v1l-10 49q-2 13-13 20.5t-24 5.5l-724-144q-11-2-18-10.5t-8-19.5v0-549q0-33 23.5-56.5t56.5-23.5h642q33 0 56.5 23.5t23.5 56.5v477q0 7-4.5 11.5t-11.5 4.5zM661 472.999l53 53q6 6 14 6h101q8 0 3-6l-54-53q-5-6-13-6h-102q-8 0-2 6zM427 472.999l53 53q6 6 14 6h102q8 0 2-6l-53-53q-6-6-14-6h-102q-8 0-2 6zM362 531.999q8 0 3-6l-54-53q-5-6-13-6h-102q-8 0-3 6l54 53q5 6 13 6h102zM653 704.999l100 19q8 2 14-3l63-42q7-4-1-6l-100-19q-8-2-15 2l-62 43q-7 4 1 6zM424 658.999l100 20q8 2 14-3l63-42q7-4-1-6l-100-20q-8-1-15 3l-62 42q-7 5 1 6zM195 613.999l100 20q8 1 14-3l63-42q7-5-1-6l-100-20q-8-2-15 3l-62 42q-7 4 1 6zM857 54.999q0-13-9.5-22.5t-22.5-9.5h-642q-13 0-22.5 9.5t-9.5 22.5v323h706v-323z" />
<glyph unicode="&#xe623;" glyph-name="jixiangwu" d="M457 173q5 4 12.5 12.5t27 38 33 61.5 23 83 5 104-29.5 122.5-71 139.5q-3 3-7.5 9t-13.5 23.5-13 33-1.5 34 16.5 31.5q4 4 10.5 8t28 9 44 0 54.5-29.5 63-70.5q3-5 7.5-13t15.5-34.5 19-54.5 14-69 3.5-80.5-16-87.5-40-92-73.5-91-111-87zM489 171q5 2 14.5 6t36 21.5 50.5 40 52.5 61.5 48.5 85.5 31.5 114 7.5 144.5q-1 3-1.5 10t0.5 24.5 4.5 32.5 13.5 29.5 25 20.5q5 2 11.5 3t24.5-3 32-16.5 27-45.5 16-82q0-7-0.5-14t-3.5-35-9-53-19.5-63-32-69.5-49-67.5-68.5-63-93-49-119-32zM548 150h13.5t35 4.5 52.5 13.5 61.5 30 66.5 50 63 77.5 55 109.5q1 3 3 8.5t8.5 19 14 23.5 20.5 18 27 8q4-1 9.5-2.5t18-10.5 19-23.5 5.5-44-16-69.5v0q-1-4-4.5-11t-15-26.5-25-38-36.5-42-48.5-42.5-61-35.5-74-25-88.5-7-103 15.5zM605 122q5-4 14-8.5t39-12 60.5-6.5 76 18 89.5 52q1 2 3.5 4t11 8 15.5 8 17 3.5 17-4.5l4.5-4.5t6.5-11.5 3-18.5-11.5-25.5-30.5-33q-3-3-18-12t-49-20.5-71-14-86 16-91 61.5zM622 90q1-4 3.5-10t15-21.5 28.5-27 45.5-21 65.5-9.5q34 3 40-16 0-2 0.5-4t-1-8-6-11-16-9-28.5-4l-35 6q-92 25-110 119zM180 297q0 1-1 3t-4 9-6 13-8 15.5-10.5 15.5-13 13.5-15 10-17 4-18.5-3.5q-5-1-12-5t-23.5-19.5-28-33.5-17.5-49.5 0.5-67.5 34-86.5 76.5-107.5l-25 70q-55 183 24 215 25 10 64 4zM109 226q0-5-1-13t-0.5-32.5 4.5-48.5 15-55.5 29-58.5 49.5-54 72.5-45 102.5-27 135.5-5h-11.5t-29 2.5-42.5 7-47.5 13.5-48 21-40.5 32.5-28 44.5q4-3 11-8.5t30-20 47-25 59-18.5 69-6.5 75 16.5 78 45q-2 5-6 14t-19 32-34 40-51.5 30.5-70.5 12.5v0q-6-1-16.5-2t-40.5-1.5-58.5 1.5-66 9-67.5 18-57 32-42 49zM153 377l-2.5 5t-3 13 0.5 20 12 24 28 27q2 1 5 3t6.5 7.5 0.5 9.5q-1 2-4 4t-14 1-24-11v0q-3-2-7-6t-11.5-15-10-22.5 2.5-27.5 21-32zM161 368q0 2 0.5 5.5t4.5 12.5 11 16.5 23 14 38 7.5q2 0 5.5 0.5t9 3 5.5 7.5q0 2-1 5.5t-11 8.5-27 4q-1-1-3.5-1t-11-2.5-14.5-6-14.5-9.5-11.5-15-6-22 3-29zM152 359q1 2 3.5 4.5t11 7.5 18.5 6.5 27-2.5 35-17q2-1 4.5-2.5t9.5-4 9 3.5q1 0 1.5 1.5t0.5 5.5-1.5 8-7 10-13.5 12l-2.5 1.5t-6.5 3-10 3.5-12.5 3-13.5 0.5-14.5-3-14-7-13-13.5-11.5-21zM416 168q2 4 6.5 11.5t13.5 31 14 49 4 63-12 75-39.5 83-72.5 88.5q-1 2-3 3.5t-8 7.5-11 12.5-10 15-7 17-1 18 7 18.5q2 2 6 6.5t19 11 31.5 6.5 43.5-13 55-41q5-4 12-12.5t24-36.5 28.5-57 17-73-2-86.5-36.5-95.5-79-102zM369 168q3 5 6.5 12.5t8 32 1.5 49-21.5 58.5-52.5 64q-2 1-4 3l-8 8t-8 11-4.5 13 3.5 14q1 1 3 3.5t10 6.5 17 4.5 24-5.5 31-20q5-5 12.5-13.5t21.5-35.5 18-55.5-9-69.5-49-80z" />
<glyph unicode="&#xe624;" glyph-name="kaitonghuiyuan" d="M155 359l206-163 103 382q-106-13-189-72t-120-147zM506 580l134-353 225 146q-41 86-143.5 143.5t-215.5 63.5zM702-114h-404q-58 0-104.5 43.5t-56.5 107.5l-56 357q-35 11-57 41t-22 67q0 47 33.5 80t80.5 33 80.5-33 33.5-80q0-26-16-54t-37-42l163-136 112 327q-43 15-70.5 53t-27.5 85q0 61 43 104t103.5 43 103.5-43 43-104q0-50-30.5-89t-77.5-52l127-325 169 146q-17 14-29 39.5t-12 47.5q0 47 33.5 80t80.5 33 80.5-33 33.5-80q0-44-30.5-77t-73.5-37l-55-352q-10-63-56.5-106.5t-104.5-43.5zM136 373l51-329q7-44 39.5-75.5t71.5-31.5h404q39 0 71 31.5t39 75.5l51 327-218-187-150 380-131-381zM116 564q-26 0-44.5-18t-18.5-44q0-23 15.5-41t38.5-21l8-1 8 1q23 3 39 21t16 41q0 26-18 44t-44 18zM893 441l7-1q7-1 8-1 26 0 44.5 18.5t18.5 44.5-18.5 44-44.5 18-44-18-18-44q0-19 12-36t30-23zM500.5 831q-39.5 0-67.5-28t-28-68q0-36 24-63t60-31l9-1h4q39 1 66.5 29t27.5 66q0 40-28 68t-67.5 28z" />
<glyph unicode="&#xe625;" glyph-name="tuijianyouli" d="M509.5-127q-89.5 0-165 44t-119.5 119.5-44 165 44 165 119.5 119.5 165 44 165-44 119.5-119.5 44-165-44-165-119.5-119.5-165-44zM509.5 484q-116.5 0-199.5-83t-83-199.5 83-199.5 199.5-83 199.5 83 83 199.5-83 199.5-199.5 83zM655 856q8 7 8 17 0 9-7 16t-16 7q-10 0-17-8v0l-135-134-135 134q-7 7-17 7-9 0-16-6.5t-7-16 7-16.5h-1l136-135-72-72-240 239h-1q-7 8-17 8-9 0-16-7t-7-16q0-10 8-17v0l256-256q7-7 16.5-7t16.5 7v0l257 256h-1zM921 872q0 9-7 16t-17 7v0q-9 0-15-6h-1l-285-260q-8-7-8-18 0-10 7-16.5t16.5-6.5 16.5 6v0l286 260-1 1q8 7 8 17z" />
<glyph unicode="&#xe626;" glyph-name="shop" d="M924 635.999q-3 51-13 83.5t-31.5 49.5-48 23-69.5 6h-489q-43 0-70-6t-48-23-31.5-49.5-12.5-83.5l-21-529q0-68 47.5-115t114.5-47h529q67 0 114.5 47.5t47.5 116.5zM275 756.999h489q38 0 58-3.5t35.5-16.5 21-37 6.5-66l17-470h-768l17 470q3 42 9 66t21 37 35.5 16.5 58.5 3.5zM783-15.001h-529q-51 0-86.5 36t-35.5 86v19h770v-17q2-52-33.5-88t-85.5-36zM518 475.999q85 0 144 59.5t59 142.5q0 9-6 15.5t-15 6.5-15.5-6-6.5-16q0-67-47.5-114.5t-114.5-47.5-114.5 47.5-47.5 114.5q0 9-6 15.5t-15 6.5q-10 0-16-6t-6-16q4-84 63.5-143t143.5-59z" />
<glyph unicode="&#xe627;" glyph-name="bofangjilu" d="M561-123v46h-322q-63 0-108 45t-45 109v614q0 64 45 109t108 45h381q64 0 109-45t45-109v-179h49v179q0 85-60 145t-145 60h-376q-85 0-145-60t-60-145v-614q0-85 60-145t145-60h322zM730 37v0q-37 0-58 24-33 36-24 125 14 128 89 128 41 0 96-44 75-59 69-115-7-56-92-96-46-22-80-22zM737 268q-34 0-43-87-7-68 12-89 8-9 24-9v0q23 0 61 18 61 29 65 59t-52 74q-42 34-67 34zM537-102.5q0-10.5 8-18t18.5-7.5 18 7.5 7.5 18-7.5 18-18 7.5-18.5-7.5-8-18zM774 510.5q0-10.5 7-18t17.5-7.5 17.5 7.5 7 18-7 18-17.5 7.5-17.5-7.5-7-18zM601 613h-367q-10 0-17.5-7.5t-7.5-18 7.5-18 17.5-7.5h367q10 0 17.5 7.5t7.5 18-7.5 18-17.5 7.5zM502 459h-268q-10 0-17.5-7.5t-7.5-18 7.5-18 17.5-7.5h268q11 0 18.5 7.5t7.5 18-7.5 18-18.5 7.5zM404 306h-170q-10 0-17.5-7.5t-7.5-18.5 7.5-18.5 17.5-7.5h170q11 0 18.5 7.5t7.5 18.5-7.5 18.5-18.5 7.5zM769-65q-100 0-171 71t-71 171 71 171 171 71 171-71 71-171-71-171-171-71zM769 373q-81 0-138.5-57.5t-57.5-138.5 57.5-138.5 138.5-57.5 138.5 57.5 57.5 138.5-57.5 138.5-138.5 57.5z" />
<glyph unicode="&#xe628;" glyph-name="shipinshoucang" horiz-adv-x="1068" d="M1015 333q27 171-290 366-208 134-356 148t-227.5-98-79.5-346q-17-233 40-350.5t197-126 367 98.5q7 4 27 13v-54l-1-1q-728-352-690 415t728 352q362-217 334-417h-49zM665 205h375q11 0 18.5-7.5t7.5-18-7.5-18-18.5-7.5h-375q-10 0-17.5 7.5t-7.5 18 7.5 18 17.5 7.5zM826 384h54v-410h-54v410z" />
<glyph unicode="&#xe629;" glyph-name="wodedianyingpiao" d="M228-55q-58 0-110 24t-86 68l-9 10v1q-21 33-21 72 0 61 48 103 44 36 67 68 20 35 20 75 0 68-86 148-18 18-31 48t-13 55v0q0 40 20 73v1l6 9q27 38 79.5 65.5t99.5 27.5h587q58 0 110-24.5t86-67.5l7-9v-1q23-34 23-74 0-61-48-103-48-39-71-73-16-33-17-69 1-68 87-148 18-17 31-47t13-56q0-38-19-71v-1l-7-10q-27-38-79-65.5t-100-27.5zM76 64q27-32 67-50t85-18v-26l1 26 586 1q35 0 74.5 20t59.5 48l3 4q17 23 17 52v0 1q0 16-8 35t-20 30q-103 94-103 185 0 20 6.5 47.5t16.5 45.5l1 3q28 41 81 85 31 26 31 64 0 28-19 52l-4 5q-27 32-67 50t-85 18h-587q-35-1-74.5-20.5t-60.5-47.5l-2-4q-17-24-17-53 0-39 28-66 102-94 102-185 0-53-27-102l-2-2q-27-37-76-78-30-26-30-64 0-28 19-52zM447 205v0q-52 0-81 33-42 47-30 158 18 167 122 167 56 0 133-55 107-77 99.5-149t-129.5-125q-67-29-114-29zM458 512q-7 0-12-1t-15.5-7-17.5-18-15-36.5-11-58.5q-10-89 17-119 14-16 43-16 37 0 94 25 94 41 98.5 83.5t-78.5 101.5q-64 46-103 46z" />
<glyph unicode="&#xe62a;" glyph-name="wodeqicaibi" d="M512 439q-141 0-258.5 30t-185 82.5-67.5 115.5 67.5 115.5 185 82.5 258.5 30 258.5-30 185-82.5 67.5-115.5-67.5-115.5-185-82.5-258.5-30zM512 844q-98 0-185.5-16t-146.5-41.5-93.5-57-34.5-62.5 34.5-62.5 93.5-57 146.5-41.5 185.5-16 185.5 16 146.5 41.5 93.5 57 34.5 62.5-34.5 62.5-93.5 57-146.5 41.5-185.5 16zM919 528q-25-15-57-28 52-25 81-54t29-58q0-31-34.5-62.5t-93.5-57-146.5-41.5-185.5-16-185.5 16-146.5 41.5-93.5 57-34.5 62.5q0 29 29 58t81 54q-34 14-57 28-104-61-104-140 0-63 67.5-115.5t185-82.5 258.5-30 258.5 30 185 82.5 67.5 115.5q0 79-104 140zM912 245q-26-15-60-28 57-25 88.5-55t31.5-61-34.5-62.5-93.5-57-146.5-41-185.5-15.5-185.5 15.5-146.5 41-93.5 57-34.5 62.5q0 30 31.5 60.5t88.5 55.5q-34 14-60 28-111-62-111-144 0-62 67.5-114.5t185-82.5 258.5-30 258.5 30 185 82 67.5 115q0 82-111 144z" />
<glyph unicode="&#xe62b;" glyph-name="wodekaquan" d="M1023-128h-803q-91 0-155.5 63.5t-64.5 152.5v190q0 89 64.5 152.5t155.5 63.5h803v-101l-18-5q-26-7-40.5-18t-14.5-20.5 14.5-21 40.5-17.5l18-6v-78l-18-5q-26-7-40.5-18t-14.5-21 14.5-21 40.5-18l18-5v-79l-18-5q-26-7-40.5-18t-14.5-20.5 14.5-21 40.5-17.5l18-6v-100zM220 443q-70 0-119.5-48.5t-49.5-116.5v-190q0-68 49.5-116.5t119.5-48.5h752v11q-34 13-53.5 35t-19.5 47.5 19.5 47 53.5 34.5v3q-34 13-53.5 34.5t-19.5 47.5 19.5 47.5 53.5 34.5v2q-34 13-53.5 35t-19.5 47.5 19.5 47 53.5 34.5v12h-752zM695 381h52v-102h-52v102zM695 227h52v-102h-52v102zM695 74h52v-102h-52v102zM338 657q-12 5-26 5-22 0-43-15t-29-36l-19-52 0.5 0.5t1.5 0.5q27 0 45-20l3 6q7 21 28 35.5t44 14.5q13 0 26-4l228-83h150zM625 869q-10 11-27 19t-32 8q-28 0-49-18l-177-148q25-11 42-31l128 107q22 18 50 18 15 0 32-8t26-19l242-288h67zM511 288l-40 32-82-103-82 103-40-32 89-112h-69v-51h76v-25h-76v-52h76v-51h51v51h77v52h-77v25h77v51h-69z" />
<glyph unicode="&#xe62c;" glyph-name="wodedingdan" d="M168-126v811q0 87 62.5 149t150.5 62h327q88 0 150-62t62-149v-800l-137 136-72-119-97 119-96-119-70 116-94-116-70 116zM454 106l70-115 90 112 91-112 68 112 96-95v677q0 66-47.5 112.5t-113.5 46.5h-327q-67 0-114-46.5t-47-112.5v-666l70 88 70-116zM754 583v1q0 9-7 16.5t-16 8.5v0h-362q-9-2-15.5-9t-6.5-16.5 6.5-16.5 15.5-9v0h362q9 1 16 8.5t7 16.5v0zM754 459v0q0 10-7 17t-16 8v0h-362q-9-1-15.5-8.5t-6.5-17 6.5-16.5 15.5-8v-1h362q9 1 16 8.5t7 17.5v0zM754 326v1q0 9-7 16.5t-16 8.5v0h-362v-1q-9-1-15.5-8t-6.5-16.5 6.5-17 15.5-8.5v0h362q9 1 16 8.5t7 16.5v0z" />
<glyph unicode="&#xe62d;" glyph-name="xiaoxizhongxin" d="M246 458.5q0-21.5 14.5-36.5t35.5-15 35.5 15 14.5 36.5-14.5 36.5-35.5 15-35.5-15-14.5-36.5zM448 458.5q0-21.5 14.5-36.5t35.5-15 36 15 15 36.5-15 36.5-36 15-35.5-15-14.5-36.5zM650 458.5q0-21.5 14.5-36.5t35.5-15 36 15 15 36.5-15 36.5-36 15-35.5-15-14.5-36.5zM512 806q125 0 231-45.5t168-123.5 62-170q0-132-82.5-219.5t-228.5-111.5q-46-8-149-130-100 124-152 135-141 29-225.5 118t-84.5 208q0 92 62 170t168 123.5 231 45.5zM512 858q-139 0-257-52.5t-186.5-142.5-68.5-196q0-136 94.5-239.5t255.5-136.5q20-4 60-46t71-81.5 31-40.5q5 7 13.5 17.5t32 37.5 43 48.5 40 39.5 29.5 19q169 28 261.5 132.5t92.5 249.5q0 106-68.5 196t-186.5 142.5-257 52.5z" />
<glyph unicode="&#xe62e;" glyph-name="yijianfankui" d="M589 845h-384q-64 0-109-45t-45-109v-614q0-64 45-109t109-45h614q64 0 109 45t45 109v384h51v-384q0-85-60-145t-145-60h-614q-85 0-145 60t-60 145v614q0 85 60 145t145 60h384v-51zM530 366l-36 36 486 486 36-36zM380 190l-33 39 96 96 36-36z" />
<glyph unicode="&#xe62f;" glyph-name="shezhi" horiz-adv-x="1026" d="M512-128q-51 0-102 10l-21 4v102q-36 12-70 29l-72-72-17 12q-36 24-78.5 66.5t-66.5 78.5l-11 17 72 72q-18 34-30 70h-101l-5 21q-10 50-10 102t10 102l5 21h102q11 36 29 70l-72 72 11 17q24 36 66.5 78.5t78.5 66.5l17 12 72-72q34 17 70 29v102l21 4q51 10 102.5 10t102.5-10l20-4v-102q36-12 70-29l72 72 17-12q37-24 79-66.5t66-78.5l12-17-72-72q18-34 29-70h102l4-21q10-50 10-102t-10-102l-4-21h-102q-11-36-29-70l72-72-12-17q-24-36-66-78.5t-79-66.5l-17-12-72 72q-34-17-70-29v-102l-20-4q-51-10-103-10zM440-71q72-12 144 0v98l19 5q50 13 94 39l17 10 69-70q25 18 54.5 48t47.5 54l-70 70 10 17q26 44 39 93l5 19h99q5 36 5 72t-5 72h-99l-5 19q-13 49-39 93l-10 17 70 70q-18 24-47.5 54t-54.5 48l-69-70-17 10q-44 26-94 39l-19 5v98q-36 6-72 6t-72-6v-98l-19-5q-49-13-93-39l-17-10-70 70q-24-18-54-48t-47-54l69-70-10-17q-26-44-39-93l-4-19h-99q-6-36-6-72t6-72h99l4-19q13-49 39-93l10-17-69-70q17-24 47-54t54-48l70 70 17-10q44-26 93-39l19-5v-98zM512.5 150q-96.5 0-165 68.5t-68.5 165.5 68.5 165.5 165 68.5 165-68.5 68.5-165.5-68.5-165.5-165-68.5zM512.5 566q-75.5 0-129-53.5t-53.5-128.5 53.5-128.5 129-53.5 129 53.5 53.5 128.5-53.5 128.5-129 53.5z" />
<glyph unicode="&#xe632;" glyph-name="v" horiz-adv-x="1038" d="M971 564q6-105-6.5-195t-38-152.5-62.5-114-76-83-82.5-58-78-40.5-67-27.5-45.5-21.5q-12 8-44.5 21.5t-67 27.5-78.5 40.5-82.5 58-76 83-62.5 114-38 152.5-7 195q2 35-3.5 63t-14 43.5-18.5 26.5-16 14.5-7 3.5l40 123q60-40 145.5-50t177 17 152.5 91q62-64 153-91t177-17 146 50l40-123q-3-1-7.5-3.5t-15.5-14-19-27-14-43.5-4-63zM651 598l-119-334q-11-32-15-65h-2q-3 27-17 67l-113 332h-90l175-465h83l184 465h-86z" />
<glyph unicode="&#xe635;" glyph-name="zanwubofangjilu-quesheng" d="M459 472v-175l152 87zM512 893q-104 0-198-40.5t-162.5-108.5-109-162.5-40.5-198.5 40.5-198.5 109-162.5 162.5-108.5 198-40.5 198.5 40.5 163 108.5 108.5 162.5 40 198.5-40 198.5-108.5 162.5-163 108.5-198.5 40.5zM290 163v0q-9 0-16 6t-7 16v0q0 9 6.5 15.5t15.5 7.5h1q9-1 15.5-7.5t6.5-15.5v0q0-9-6.5-15.5t-15.5-6.5zM512 65q-86 0-161 44-9 5-9 17 0 8 6 14t14 6q5 0 10-2 65-38 140-38 115 0 196.5 81.5t81.5 196-81.5 196-196.5 81.5-196-81.5-81-196.5q0-58 23-112 2-4 2-8 0-13-12-19-4-1-9-1-13 0-18 12-27 61-27 128 0 87 42.5 160.5t116 116 160 42.5 159.5-42.5 116-116 43-160-43-160-116-116-160-42.5zM419 261v246q0 9 6 15t14 6q5 0 10-3l213-123q11-6 11-17.5t-11-17.5l-213-123q-5-3-10-3-8 0-14 6t-6 14z" />
<glyph unicode="&#xe637;" glyph-name="shipinshoucang-quesheng" d="M512 894q-104 0-198.5-40.5t-162.5-108.5-108.5-162.5-40.5-198.5 40.5-198.5 108.5-162.5 162.5-108.5 198.5-40.5 198.5 40.5 162.5 108.5 108.5 162.5 40.5 198.5-40.5 198.5-108.5 162.5-162.5 108.5-198.5 40.5zM810 355q15 96-162 206-117 75-200 82.5t-127.5-55-44.5-193.5q-15-196 66-248t272 36q2 2 7.5 4t7.5 3v-31q-204-98-301-40t-86 272q22 429 408 198 202-122 187-234h-27zM629 279h221q6 0 10.5-4.5t4.5-10.5-4.5-10.5-10.5-4.5h-221q-6 0-10.5 4.5t-4.5 10.5 4.5 10.5 10.5 4.5zM724 385h32v-242h-32v242z" />
<glyph unicode="&#xe638;" glyph-name="wodedianyingpiao-quesheng" d="M826 555q0 19-13 35l-2 3q-39 46-104 46h-399q-23 0-50-13.5t-41-32.5l-2-2q-11-16-11-36 0-26 19-45 70-64 70-125 0-37-19-70l-1-1q-19-26-52-53-20-18-20-44 0-19 12-35l3-3q39-46 104-46v0l398 1q24 0 50.5 13.5t40.5 32.5l2 2q12 17 12 36v0 0q0 27-19 45-70 64-70 125 0 34 15 64l1 2q19 27 55 57 21 18 21 44zM633.5 380q-5.5-49-87.5-85-46-20-78-20-35 0-55 22-29 32-20 108 12 113 82 113 39 0 91-37 73-52 67.5-101zM546 452q-44 31-71 31-4 0-7.5-0.5t-10.5-4.5-12-12-10-25-8-40q-6-60 12-80 10-11 29-11 25 0 64 17 64 27 67 56t-53 69zM513.5 893q-103.5 0-198-40.5t-163-108.5-109-162.5-40.5-198.5 40.5-198.5 109-162.5 163-108.5 198-40.5 198 40.5 163 108.5 109 162.5 40.5 198.5-40.5 198.5-109 162.5-163 108.5-198 40.5zM828 288q12-12 20.5-32.5t8.5-37.5q0-26-13-48v-1l-4-7q-19-26-54.5-44.5t-67.5-18.5l-398-1q-40 0-75.5 16.5t-58.5 46.5l-6 7v1q-14 22-14 48 0 42 33 71 29 24 45 45 14 24 14 52 0 46-59 100-12 12-21 32.5t-9 37.5v0q0 27 14 50v0l4 6q18 26 53.5 44.5t67.5 18.5h399q40 0 75.5-16.5t58.5-45.5l4-6v-1q16-23 16-50 0-41-33-70-32-27-48-50-11-22-11-46 0-47 59-101z" />
<glyph unicode="&#xe63a;" glyph-name="shouru-quesheng" d="M2 384q0-104 40.5-198.5t108.5-162.5 162.5-108.5 198.5-40.5 198.5 40.5 162.5 108.5 108.5 162.5 40.5 198.5-40.5 198.5-108.5 162.5-162.5 108.5-198.5 40.5-198.5-40.5-162.5-108.5-108.5-162.5-40.5-198.5zM464 667q27 0 49 6 89 27 134 27 33 0 60-11l15-8-8-14q-15-31-79-85h-51q64 49 91 83-44 10-153-23-26-8-58-8-33 0-76 12 30-41 57-64h-44q-21 23-38 48.5t-22 39.5l-6 14q73-17 129-17zM572 289q8 5 19-3 7-5 6.5-13t-6.5-14l-60-62q-3-9-13-9-8 0-16 9l-63 62q-13 14 0.5 27.5t26.5-0.5l28-19v109q0 8 9 14.5t17.5 6.5 18-6.5 9.5-14.5v-109zM804 271q-10-205-293-205h-5q-158 0-228 71-55 56-52 153 4 138 165 241h63q-2 0-5.5-2.5t-4.5-2.5q-24-14-40.5-24.5t-46-34.5-48.5-47.5-34-58-16-71.5q-3-83 42-130 59-62 205-62h4q38 0 69 3.5t67.5 14 61.5 29 43 51.5 21 77q1 35-11 68.5t-28 56.5-44.5 49-44.5 38-43 31q-15 10-22 16h56q25-18 44-33.5t45.5-42 43-52.5 27.5-61 9-72z" />
<glyph unicode="&#xe63b;" glyph-name="zhichu-quesheng" d="M2 384q0-104 40.5-198.5t108.5-162.5 162.5-108.5 198.5-40.5 198.5 40.5 162.5 108.5 108.5 162.5 40.5 198.5-40.5 198.5-108.5 162.5-162.5 108.5-198.5 40.5-198.5-40.5-162.5-108.5-108.5-162.5-40.5-198.5zM711 164q-75-65-187-74h-9q-199 8-270 165-27 60-28 114 0 63 17 114t42.5 82 61 54.5 65 34.5 61.5 17.5 43 7.5 18 1v0q31 0 62.5-8.5t54-20.5 40.5-23.5 27-20.5l9-8q11-15 11.5-29t-5.5-21l-5-7q-17-10-28.5-8t-17.5 9l-6 7q-13 20-34.5 34t-43.5 19.5-42 8-33 2.5l-12-1q-52-11-91.5-31t-62-42.5-38-47-21-46.5-7-40.5-0.5-28.5 1-11q5-44 21-79.5t35-57 45-37 45.5-22.5 42-11 29-4h11.5q36-4 72.5 10.5t55.5 29.5l18 16q14 15 29 18.5t23-0.5l8-5q12-15 10.5-28.5t-9.5-22.5zM657 298v52h-164q-3 0-6 1t-8.5 8-5.5 19v20q0 2 0.5 6t7 11 18.5 7h158v58l152-92z" />
<glyph unicode="&#xe63c;" glyph-name="duihuan-quesheng" d="M2 384q0-104 40.5-198.5t108.5-162.5 162.5-108.5 198.5-40.5 198.5 40.5 162.5 108.5 108.5 162.5 40.5 198.5-40.5 198.5-108.5 162.5-162.5 108.5-198.5 40.5-198.5-40.5-162.5-108.5-108.5-162.5-40.5-198.5zM230 529q0 7 4 13t7 8l4 2q159 114 163 116 1 1 2.5 2t5.5 2 8 0 6.5-3 2.5-3v-94h156q35 0 61.5-15t39-36.5 19.5-43 8-36.5l1-15q0 21-31.5 36.5t-62.5 21.5l-32 5h-159v-86q0-7-9-9-5-1-9.5-0.5t-7.5 1.5l-3 1-163 113q0-1-3 1.5t-5.5 7.5-2.5 11zM784 220l-163-116q-7-4-13-3-5 1-8 2.5t-3 3.5l-1 1v93h-156q-36 0-62.5 15t-39 36.5-19.5 43-8 37.5l-1 15q0-21 31.5-37t62.5-21l32-6h160v87q1 5 12 8l16-1 163-113q11-6 11-21 1-16-14-24z" />
<glyph unicode="&#xe63d;" glyph-name="wodedingdan-quesheng" d="M613 657h-204q-41 0-70.5-29.5t-29.5-70.5v-415l44 55 44-72 58 72 43-72 57 69 56-69 43 70 60-60v422q0 41-29.5 70.5t-71.5 29.5zM627 318v0h-225q-6 1-10 5.5t-4 10.5v0 0q0 6 4 10.5t10 4.5v1h225v-1q6 0 10.5-4.5t4.5-10.5v0 0q0-6-4.5-11t-10.5-5zM627 400v0h-225v1q-6 0-10 4.5t-4 10.5v0 0q0 6 4 10.5t10 5.5v0h225q6 0 10.5-5t4.5-11v0 0q0-6-4.5-10.5t-10.5-5.5zM627 478v0h-225q-6 1-10 5.5t-4 10.5v0 0q0 6 4 10.5t10 5.5v0h225q6-1 10.5-5.5t4.5-10.5v0 0q0-6-4.5-10.5t-10.5-5.5zM511 893q-104 0-198.5-40.5t-162.5-108.5-108.5-162.5-40.5-198.5 40.5-198.5 108.5-162.5 162.5-108.5 198.5-40.5 198.5 40.5 163 108.5 108.5 162.5 40 198.5-40 198.5-108.5 162.5-163 108.5-198.5 40.5zM746 59l-86 84-45-74-60 75-60-75-44 72-58-72-44 72-72-89v505q0 55 39 93t93 38h204q55 0 94-38t39-93v-498z" />
<glyph unicode="&#xe63e;" glyph-name="xitongxiaoxi" d="M512.5 891q-103.5 0-198-40t-162.5-108.5-108.5-162.5-40.5-198 40.5-198 108.5-162.5 162.5-109 198-40.5 198 40.5 162.5 109 108.5 162.5 40.5 198-40.5 198-108.5 162.5-162.5 108.5-198 40zM290 226h-59q-16 0-27.5 12t-11.5 28v163q0 17 11.5 29t27.5 12h59v-244zM661 168q0-30-14.5-51t-34.5-21h-1q-2 0-4 1l-271 126q-6 3-6 10v254q0 6 5 9l271 156q3 1 6 1v0q20 0 34.5-20.5t14.5-50.5v-414zM705 207v309q55-9 91.5-52.5t36.5-102-36.5-102-91.5-52.5z" />
<glyph unicode="&#xe63f;" glyph-name="pinglunzan" horiz-adv-x="1026" d="M516 895q-104 0-198.5-40.5t-163-109-109-163-40.5-198.5 40.5-198.5 109-163 163-109 198.5-40.5 198.5 40.5 163 109 109 163 40.5 198.5-40.5 198.5-109 163-163 109-198.5 40.5zM516 166q-15 0-31 1-43-78-188-55 61 29 81 83-70 32-112 90.5t-42 128.5q0 102 85.5 174.5t206.5 72.5 206.5-72.5 85.5-175-85.5-175-206.5-72.5zM391 442q-15 0-25.5-10.5t-10.5-25.5 10.5-26 25.5-11 25.5 11 10.5 26-10.5 25.5-25.5 10.5zM480 406q0-15 10.5-25.5t25.5-10.5 25 10.5 10 25.5-10 25-25 10-25.5-10-10.5-25zM641 441q-15 0-25.5-10t-10.5-25v0 0q0-15 10.5-25.5t25.5-10.5v0 0q15 0 25 10.5t10 25.5v0 0q0 15-10 25t-25 10v0z" />
<glyph unicode="&#xe641;" glyph-name="gerenzhongxinweidenglu" d="M149 894l295 1-148-256zM444 895l-148-256h295zM591 640l-147-256 295 1zM444 895h295l-148-256zM591 639l295 1-147-256zM739 895l-148-256 295 1zM591 129l148 256h-295zM444 385l-148-256h295zM444-126l147 256-295-1zM487 578l-76-132-77 132h153z" />
<glyph unicode="&#xe644;" glyph-name="appreciate" d="M874 479.999h-189q30 105 19 189-5 45-29.5 77.5t-63.5 47.5q-29 9-55.5 4.5t-43.5-20.5q-12-12-22-35t-15.5-41-13.5-52q-2-9-6.5-26t-7-26-6.5-20-9-18q-14-24-41.5-43.5t-44.5-26.5-29-10h-93q-14 0-23-9t-9-23v-448q0-14 9-23t23-9h547q35 0 67.5 41t53.5 98 37 118.5 23.5 103.5 7.5 52q0 41-27 70t-59 29zM771 34.999h-515v381h77q12 3 28 10t39 20 46 33.5 37 45.5q17 27 35 105 2 6 4.5 17.5t4 17.5 4.5 16 5 16.5 5 13.5 6 11.5 7 7.5q3 3 13 3.5t25-3.5q15-3 29.5-19t18.5-49q6-45-2-95.5t-19-78.5l-11-27q-6-18 3-32 11-16 26-16h237q6 0 15.5-9.5t9.5-22.5q-1-36-23.5-118t-53-155-51.5-73zM96 479.999q-14 0-23-9t-9-23v-448q0-14 9-23t23-9 23 9 9 23v448q0 14-9 23t-23 9z" />
<glyph unicode="&#xe645;" glyph-name="check1" d="M888.868 597.708q-10.010 9.009-23.022 8.508t-22.022-10.51l-427.417-454.444-233.228 230.225q-10.010 9.009-23.022 9.009t-22.522-9.509-9.509-23.022 10.010-22.522l256.25-253.247h1.001q1.001-1.001 7.007-4.004 0-1.001 1.001-1.501t2.002-1.501q6.006-2.002 12.012-2.002t12.012 3.003q1.001 0 2.002 1.001t2.002 1.001q5.005 3.003 7.007 5.005v0 0l449.439 479.468q9.009 9.009 9.009 22.522t-10.010 22.522z" />
<glyph unicode="&#xe646;" glyph-name="close" d="M557.544 382.498l266.26 264.258q9.009 9.009 9.009 22.022t-9.509 22.522-22.522 9.509-23.022-9.009l-265.259-264.258-263.257 264.258q-9.009 9.009-22.522 9.009t-23.022-9.009-9.509-22.522 10.010-22.522l263.257-264.258-265.259-264.258q-10.010-9.009-10.010-22.522t9.509-22.522 22.522-9.009 23.022 9.009l265.259 264.258 265.259-267.261q10.010-9.009 23.022-9.009t22.522 9.509 9.509 22.522-9.009 23.022z" />
<glyph unicode="&#xe647;" glyph-name="wodejifen-quesheng" d="M512 660q-116 0-195.5-33t-79.5-72.5 79.5-72.5 195.5-33 195.5 33 79.5 72.5-79.5 72.5-195.5 33zM512 251q-118 0-203 34-34-15-53-33t-19-36q0-40 79.5-72.5t195.5-32.5 195.5 32.5 79.5 72.5q0 18-19 36t-53 33q-85-34-203-34zM512 418q-122 0-209 36-66-30-66-67 0-39 79.5-72t195.5-33 195.5 33 79.5 72q0 36-66 67-87-36-209-36zM512 894q-104 0-198.5-40.5t-162.5-108.5-108.5-162.5-40.5-198.5 40.5-198.5 108.5-162.5 162.5-108.5 198.5-40.5 198.5 40.5 162.5 108.5 108.5 162.5 40.5 198.5-40.5 198.5-108.5 162.5-162.5 108.5-198.5 40.5zM817 387q0-48-66-85 66-37 66-86 0-57-88.5-96.5t-216.5-39.5-216.5 39.5-88.5 96.5q0 49 66 86-66 37-66 85 0 47 62 84-62 36-62 83 0 57 88.5 96.5t216.5 39.5 216.5-39.5 88.5-96.5q0-47-62-83 62-37 62-84z" />
<glyph unicode="&#xe648;" glyph-name="xiaoxi-quesheng" d="M512.5 894q-103.5 0-198.5-40.5t-163-108.5-108.5-163-40.5-198.5 40.5-198 108.5-163 163-109 198.5-40.5 198 40.5 163 109 109 163 40.5 198-40.5 198.5-109 163-163 108.5-198 40.5zM480 398v0q0 13 9.5 23t22.5 10v0q14 0 23.5-10t9.5-23.5-9.5-23-23.5-9.5v0q-13 0-22.5 9.5t-9.5 23.5v0zM631 159q-33-10-60-31-26-21-45-49-5-7-14-7v0q-5 0-10 4t-6 11.5 3 13.5q22 31 52 55 31 24 70 37 84 26 133.5 82.5t49.5 125.5q0 93-85 160-86 68-206.5 68t-206.5-68q-86-67-86-160 0-69 50-125.5t133-82.5q39-12 65-49 5-6 4-13.5t-7-11.5q-4-4-10-4v0q-8 0-13 8-20 27-47 36-95 29-151.5 95t-56.5 147q0 107 96 185 96 79 229.5 79t229.5-79q96-78 96-185 0-81-56.5-147t-150.5-95zM626 397.5q0 13.5 9.5 23.5t23 10 23.5-10 10-23v0q0-14-10-23.5t-23-9.5v0q-14 0-23.5 9.5t-9.5 23zM399 397.5q0-13.5-9.5-23t-23-9.5-23.5 9.5-10 23 10 23.5 23 10v0q14 0 23.5-10t9.5-23.5z" />
<glyph unicode="&#xe649;" glyph-name="wodekaquan-quesheng" d="M340 450q-41 0-70.5-28.5t-29.5-68.5v-113q0-40 29.5-68.5t70.5-28.5h445v7q-43 16-43 48t43 49v1q-43 17-43 49t43 49v1q-43 17-43 49t43 48v7h-445v-1zM621 414h30v-61h-30v61zM621 323h30v-60h-30v60zM621 232h30v-60h-30v60zM391 378l49-61 48 61 24-19-53-66h41v-30h-45v-16h45v-30h-45v-30h-31v30h-45v30h45v16h-45v30h41l-53 66 6 4.5t12 9.5zM512 894q-104 0-198.5-40.5t-162.5-108.5-108.5-162.5-40.5-198.5 40.5-198.5 108.5-162.5 162.5-108.5 198.5-40.5 198.5 40.5 162.5 108.5 108.5 162.5 40.5 198.5-40.5 198.5-108.5 162.5-162.5 108.5-198.5 40.5zM788 108h-434q-49 0-83.5 34t-34.5 82v103q0 48 34.5 82t83.5 34h434v-54l-10-2q-13-4-21-10t-8-11.5 8-11.5 21-9l10-3v-42l-10-3q-13-4-21-10t-8-11 8-11 21-10l10-3v-42l-10-3q-13-3-21-9t-8-11.5 8-11.5 21-10l10-2v-55zM354 416q-37 0-64-26t-27-63v-103q0-37 27-63t64-26h407v6q-40 15-40 44t40 45v1q-40 15-40 44t40 45v1q-40 15-40 45 0 29 40 44v6h-407zM498 382h28v-55h-28v55zM498 300h28v-56h-28v56zM498 217h28v-56h-28v56zM385 531q-17 6-32.5-1t-21.5-23l-10-28h1q15 0 25-11l1 3q5 16 21 23.5t32 1.5l123-45h81zM540 646q-12 13-29 14.5t-30-9.5l-95-80q13-6 23-17l69 58q13 11 30 9.5t28-14.5l131-156h35zM478 332l-21 18-45-56-44 56-22-18 48-60h-37v-28h41v-14h-41v-27h41v-28h28v28h41v27h-41v14h41v28h-37z" />
<glyph unicode="&#xe64a;" glyph-name="emoji" d="M511.5-64.939q-91.089 0-174.17 35.535t-143.14 95.593-95.593 143.14-35.535 174.17 35.535 174.17 95.593 143.14 143.14 95.593 174.17 35.535 174.17-35.535 143.14-95.593 95.593-143.14 35.535-174.17-35.535-174.17-95.593-143.14-143.14-95.593-174.17-35.535zM511.5 767.874q-104.102 0-192.688-51.55t-140.137-140.137-51.55-192.688 51.55-192.688 140.137-140.137 192.688-51.55 192.688 51.55 140.137 140.137 51.55 192.688-51.55 192.688-140.137 140.137-192.688 51.55zM512.5 122.243q-67.065 0-126.624 29.028t-100.598 81.079q-8.008 11.011-6.506 24.023t12.012 21.021 23.523 6.506 21.021-11.511q33.032-41.040 79.077-63.562t98.096-22.522q53.052 0 99.597 22.522t78.577 64.563q8.008 11.011 21.021 12.512t23.523-6.506 12.512-21.021-7.007-24.023q-41.040-53.052-100.598-82.581t-127.625-29.529zM368.36 380.496q-20.020 0-34.033 14.014t-14.014 34.033v64.063q0 20.020 14.014 34.033t34.033 14.014 34.033-14.014 14.014-34.033v-64.063q0-20.020-14.014-34.033t-34.033-14.014zM656.641 380.496q-20.020 0-34.033 14.014t-14.014 34.033v64.063q0 20.020 14.014 34.033t34.033 14.014 34.033-14.014 14.014-34.033v-64.063q0-20.020-14.014-34.033t-34.033-14.014z" />
<glyph unicode="&#xe64b;" glyph-name="favorfill" d="M957.935 491.104q-6.006 18.518-25.024 21.521l-271.265 42.041-120.117 259.253q-9.009 18.018-29.028 18.018v0q-21.021 0-29.028-18.018l-122.119-258.252-271.265-41.040q-19.019-3.003-25.525-21.521t7.507-32.532l196.192-202.197-47.046-285.279q-3.003-20.020 13.513-31.531t33.533-1.501l242.237 133.13 242.237-134.131q7.007-4.004 15.015-4.004h1.001q13.013 0 22.522 9.509t9.509 22.522q0 6.006-2.002 11.011l-45.044 279.273 197.193 201.196q13.013 14.014 7.007 32.532z" />
<glyph unicode="&#xe64c;" glyph-name="favor" d="M767.75-64.939q-8.008 0-15.015 4.004l-242.237 134.131-242.237-133.13q-17.017-10.010-33.533 1.501t-13.513 31.531l47.046 285.279-196.192 202.197q-14.014 14.014-8.008 32.532t25.024 21.521l156.152 26.025q13.013 3.003 23.523-5.005t13.013-21.021-5.505-23.523-21.021-13.513l-95.093-16.016 166.162-170.166q11.011-12.012 8.008-28.027l-39.038-235.23 200.196 110.108q15.015 8.008 31.030-1.001l199.195-110.108-38.037 236.231q-3.003 16.016 9.009 27.026l164.16 169.165-225.22 34.033q-17.017 3.003-24.023 18.018l-100.098 213.208-100.098-212.207q-5.005-12.012-17.517-16.516t-24.524 1.001-16.516 18.018 0.5 24.524l130.127 274.268q8.008 18.018 29.028 18.018v0q20.020 0 29.028-18.018l120.117-259.253 271.265-42.041q19.019-3.003 25.024-21.521t-7.007-32.532l-197.193-201.196 46.045-285.279q3.003-20.020-14.014-31.030-8.008-6.006-18.018-6.006z" />
<glyph unicode="&#xe64d;" glyph-name="down" d="M512 209l-306 307 28 28 278-277 278 277 28-28z" />
<glyph unicode="&#xe64e;" glyph-name="up2" d="M505 514q12 14 24 0l271-309q6-7 14.5-7.5t15.5 5 7.5 14.5-5.5 16l-271 309q-18 21-44 21t-44-20l-281-310q-6-7-5.5-15.5t7-14.5 15.5-5.5 15 6.5z" />
<glyph unicode="&#xe64f;" glyph-name="bofangjilu1" d="M561-123v46h-322q-63 0-108 45t-45 109v614q0 64 45 109t108 45h381q64 0 109-45t45-109v-179h49v179q0 85-60 145t-145 60h-376q-85 0-145-60t-60-145v-614q0-85 60-145t145-60h322zM730 37v0q-37 0-58 24-33 36-24 125 14 128 89 128 41 0 96-44 75-59 69-115-7-56-92-96-46-22-80-22zM737 268q-34 0-43-87-7-68 12-89 8-9 24-9v0q23 0 61 18 61 29 65 59t-52 74q-42 34-67 34zM537-102.5q0-10.5 8-18t18.5-7.5 18 7.5 7.5 18-7.5 18-18 7.5-18.5-7.5-8-18zM774 510v0q0-10 7-17.5t17.5-7.5 17.5 7.5 7 17.5v0 0q0 11-7 18.5t-17.5 7.5-17.5-7.5-7-18.5v0zM601 613h-367q-10 0-17.5-7.5t-7.5-18 7.5-18 17.5-7.5v0h367q10 0 17.5 7.5t7.5 18-7.5 18-17.5 7.5v0zM502 459h-268q-10 0-17.5-7.5t-7.5-18 7.5-18 17.5-7.5v0h268q11 0 18.5 7.5t7.5 18-7.5 18-18.5 7.5v0zM404 306h-170q-10 0-17.5-7.5t-7.5-18.5 7.5-18.5 17.5-7.5v0h170q11 0 18.5 7.5t7.5 18.5-7.5 18.5-18.5 7.5v0zM769-65q-100 0-171 71t-71 171 71 171 171 71 171-71 71-171-71-171-171-71zM769 373q-81 0-138.5-57.5t-57.5-138.5 57.5-138.5 138.5-57.5 138.5 57.5 57.5 138.5-57.5 138.5-138.5 57.5z" />
<glyph unicode="&#xe650;" glyph-name="locationfill" d="M512.5 831.936q-146.143 0-249.243-103.101t-103.101-249.243q0-53.052 34.033-127.625t76.575-136.633 98.096-130.628 80.078-95.593 40.54-44.043q9.009-10.010 23.022-10.010h1.001q14.014 0 23.022 11.011l109.107 125.122q219.214 268.262 219.214 408.399 0 146.143-103.101 249.243t-249.243 103.101zM512.5 319.436q-66.065 0-113.11 47.046t-47.046 113.11 47.046 113.11 113.11 47.046 113.11-47.046 47.046-113.11-47.046-113.11-113.11-47.046z" />
<glyph unicode="&#xe651;" glyph-name="shipinshoucang1" horiz-adv-x="1068" d="M1015 333q27 171-290 366-208 134-356 148t-227.5-98-79.5-346q-17-233 40-350.5t197-126 367 98.5q7 4 27 13v-54l-1-1q-728-352-690 415t728 352q362-217 334-417h-49zM665 205h375q11 0 18.5-7.5t7.5-18-7.5-18-18.5-7.5h-375q-10 0-17.5 7.5t-7.5 18 7.5 18 17.5 7.5zM826 384h54v-410h-54v410z" />
<glyph unicode="&#xe652;" glyph-name="phone2" d="M369.361 65.188v-1.001q-4.004 0-8.508-0.5t-5.505-0.5h-3.003q-52.051 0-89.087 36.536t-38.037 88.587q-2.002 53.052 34.033 91.089 37.036 39.038 89.087 40.039h4.004q40.039 0 74.072-24.023 46.045-16.016 92.090 45.044t19.019 95.093q-9.009 7.007-18.018 17.017-2.002 1.001-3.003 3.003-31.030 35.034-33.032 80.078-1.001 53.052 35.034 91.089t89.087 40.039h4.004q44.043 0 78.577-28.027t44.543-71.069q6.006-18.018 8.008-43.042t-1.501-68.066-28.027-100.598-68.567-116.614q-41.040-55.054-85.083-93.091t-81.58-54.053-62.561-21.521-46.045-5.505zM365.357 129.25q9.009 0 20.52 1.001t36.536 9.009 49.048 22.522 57.556 44.543 64.563 71.069q38.037 52.051 59.558 101.599t24.023 85.584 1.001 54.553-5.505 31.531q-5.005 23.022-22.522 37.537t-39.539 14.514q-27.026-1.001-45.044-20.020t-18.018-45.044q1.001-23.022 17.017-40.039v-1.001q6.006-6.006 12.012-10.010 4.004-3.003 6.006-6.006 10.010-10.010 16.516-24.023t11.011-36.536-5.505-53.552-35.034-64.063q-55.054-74.072-124.121-74.072-24.023 0-47.046 9.009-4.004 2.002-8.008 5.005-17.017 14.014-38.037 14.014-28.027-1.001-46.045-20.020t-17.017-45.044q0-26.025 18.518-44.043t44.543-18.018v0q1.001 1.001 3.003 1.001 6.006 0 10.010-1.001zM512.5-67.942q-91.089 0-174.17 35.034-12.012 5.005-17.017 17.017t0 24.524 17.517 17.517 24.524 0q71.069-30.029 149.146-30.029 104.102 0 192.688 51.55t140.137 140.137 51.55 192.688-51.55 192.688-140.137 140.137-192.688 51.55-192.688-51.55-140.137-140.137-51.55-192.688q0-111.109 59.058-204.199 7.007-11.011 4.004-24.023t-14.514-20.020-24.524-4.004-20.020 14.014q-68.066 109.107-68.066 238.233 0 91.089 35.535 174.17t95.593 143.14 143.14 95.593 174.17 35.535 174.17-35.535 143.14-95.593 95.593-143.14 35.535-174.17-35.535-174.17-95.593-143.14-143.14-95.593-174.17-35.535z" />
<glyph unicode="&#xe653;" glyph-name="wodedianyingpiao1" d="M228-55q-58 0-110 24t-86 68l-9 10v1q-21 33-21 72 0 61 48 103 44 36 67 68 20 35 20 76 0 67-86 147-44 42-44 103v0q0 40 20 73v1l6 9q31 43 78 68t101 25h587q58 0 110-24.5t86-67.5l7-9v-1q23-34 23-74 0-61-48-103-48-39-71-73-16-32-17-69 1-68 87-148 44-42 44-103 0-38-19-72v0l-7-10q-30-43-77-68t-102-25zM76 64q27-32 67-50t85-18v-26l1 26 586 1q41 0 76 18t58 49l3 5q17 23 17 52v0 1q0 38-28 65-103 94-103 185 0 50 23 94l1 2q28 41 81 85 31 26 31 64 0 28-19 52l-4 5q-27 32-67 50t-85 18h-587q-41-1-76-19t-58-49l-3-4q-17-24-17-53 0-39 28-66 102-94 102-185 0-53-27-102l-2-2q-27-37-76-78-30-26-30-64 0-28 19-52l4-4zM447 205v0q-52 0-81 33-42 47-30 158 18 167 122 167 56 0 133-55 107-77 99.5-149t-129.5-125q-67-29-114-29zM458 512q-7 0-12-1t-15.5-7-17.5-18-15-36.5-11-58.5q-10-89 17-119 14-16 43-16 37 0 94 25 94 41 98.5 83.5t-78.5 101.5q-64 46-103 46z" />
<glyph unicode="&#xe654;" glyph-name="wodeqicaibi1" d="M512 439q-141 0-258.5 30t-185 82.5-67.5 115.5 67.5 115.5 185 82.5 258.5 30 258.5-30 185-82.5 67.5-115.5-67.5-115.5-185-82.5-258.5-30zM512 844q-98 0-185.5-16t-146.5-41.5-93.5-57-34.5-62.5 34.5-62.5 93.5-57 146.5-41.5 185.5-16 185.5 16 146.5 41.5 93.5 57 34.5 62.5-34.5 62.5-93.5 57-146.5 41.5-185.5 16zM919 528q-25-15-57-28 52-25 81-54t29-58q0-31-34.5-62.5t-93.5-57-146.5-41.5-185.5-16-185.5 16-146.5 41.5-93.5 57-34.5 62.5q0 29 29 58t81 54q-34 14-57 28-104-61-104-140 0-63 67.5-115.5t185-82.5 258.5-30 258.5 30 185 82.5 67.5 115.5q0 79-104 140zM912 245q-26-15-60-28 57-25 88.5-55t31.5-61-34.5-62.5-93.5-57-146.5-41-185.5-15.5-185.5 15.5-146.5 41-93.5 57-34.5 62.5q0 30 31.5 60.5t88.5 55.5q-34 14-60 28-111-62-111-144 0-62 67.5-114.5t185-82.5 258.5-30 258.5 30 185 82 67.5 115q0 82-111 144z" />
<glyph unicode="&#xe655;" glyph-name="order" d="M883 834.999h-89q-11 0-18.5-7t-7.5-18q0-26 26-26h89q19 0 33.5-14.5t14.5-33.5v-714q0-19-14.5-33.5t-33.5-14.5h-736q-19 0-33.5 14.5t-14.5 33.5v714q0 19 14.5 33.5t33.5 14.5h99q11 0 18.5 7t7.5 19q0 25-26 25h-99q-41 0-68.5-27.5t-27.5-68.5v-713q0-41 27.5-68.5t68.5-27.5h736q41 0 68.5 27.5t27.5 68.5v713q0 40-28.5 68t-67.5 28zM394 786.999h240q10 0 17.5 7t7.5 19q0 25-25 25h-240q-11 0-18.5-7t-7.5-18.5 7.5-18.5 18.5-7zM294 549.999h464q11 0 18.5 7.5t7.5 18.5q0 26-26 26h-464q-10 0-17.5-7.5t-7.5-18.5q0-26 25-26zM294 354.999h464q11 0 18.5 7t7.5 19q0 25-26 25h-464q-10 0-17.5-7t-7.5-18q0-26 25-26zM294 159.999h464q11 0 18.5 7t7.5 19q0 25-26 25h-464q-10 0-17.5-7t-7.5-18q0-26 25-26z" />
<glyph unicode="&#xe656;" glyph-name="roundcheckfill" d="M512.5 829.934q-91.089 0-173.67-35.535t-142.139-95.093-95.093-142.139-35.535-173.67 35.535-173.67 95.093-142.139 142.139-95.093 173.67-35.535 173.67 35.535 142.139 95.093 95.093 142.139 35.535 173.67-35.535 173.67-95.093 142.139-142.139 95.093-173.67 35.535zM727.711 457.571l-256.25-259.253v-1.001q-2.002-1.001-7.007-4.004-1.001-1.001-2.002-1.501t-2.002-1.501q-6.006-2.002-12.012-2.002t-12.012 2.002q-1.001 1.001-2.002 1.501t-1.001 1.501q-6.006 3.003-7.007 4.004v1.001h-1.001l-126.123 129.126q-9.009 10.010-9.009 23.022t9.509 22.522 23.022 9.009 22.522-9.509l103.101-106.104 234.229 236.231q9.009 9.009 22.522 9.009t22.522-9.009 9.509-22.522-9.509-22.522z" />
<glyph unicode="&#xe657;" glyph-name="roundcheck" d="M512.5-64.939q-185.181 0-316.809 131.629t-131.629 316.809 131.629 316.809 316.809 131.629 316.809-131.629 131.629-316.809-131.629-316.809-316.809-131.629zM512.5 767.874q-104.102 0-192.688-51.55t-140.137-140.137-51.55-192.688 51.55-192.688 140.137-140.137 192.688-51.55 192.688 51.55 140.137 140.137 51.55 192.688-51.55 192.688-140.137 140.137-192.688 51.55zM727.711 502.114q-9.009 9.509-22.522 9.509t-22.522-9.009l-234.229-236.231-103.101 106.104q-9.009 9.009-22.522 9.509t-23.022-9.009-9.509-22.522 9.009-23.022l126.123-129.126h1.001v-1.001q1.001-1.001 7.007-4.004 0-1.001 1.001-1.501t2.002-1.501q6.006-2.002 12.012-2.002t12.012 2.002q1.001 1.001 2.002 1.501t2.002 1.501q5.005 3.003 7.007 4.004v0 1.001l256.25 259.253q10.010 9.009 9.509 22.022t-9.509 22.522z" />
<glyph unicode="&#xe658;" glyph-name="roundclosefill" d="M512.5 831.936q-185.181 0-316.809-131.629t-131.629-316.809 131.629-316.809 316.809-131.629 316.809 131.629 131.629 316.809-131.629 316.809-316.809 131.629zM695.679 245.364q9.009-9.009 9.009-22.522t-9.509-23.022-22.522-9.509-23.022 10.010l-137.134 138.135-138.135-137.134q-10.010-9.009-23.022-9.009t-22.522 9.509-9.509 22.522 10.010 23.022l138.135 136.133-138.135 138.135q-9.009 9.009-9.009 22.522t9.509 23.022 22.522 9.509 23.022-10.010l137.134-138.135 138.135 137.134q10.010 9.009 23.022 9.009t22.522-9.509 9.509-22.522-10.010-23.022l-138.135-136.133z" />
<glyph unicode="&#xe659;" glyph-name="roundclose" d="M512.5-64.939q-185.181 0-316.809 131.629t-131.629 316.809 131.629 316.809 316.809 131.629 316.809-131.629 131.629-316.809-131.629-316.809-316.809-131.629zM512.5 767.874q-104.102 0-192.688-51.55t-140.137-140.137-51.55-192.688 51.55-192.688 140.137-140.137 192.688-51.55 192.688 51.55 140.137 140.137 51.55 192.688-51.55 192.688-140.137 140.137-192.688 51.55zM557.544 382.498l138.135 136.133q10.010 10.010 10.010 23.022t-9.509 22.522-22.522 9.509-23.022-9.009l-138.135-137.134-137.134 137.134q-9.009 9.009-22.022 9.009t-22.522-9.009-9.509-22.522 9.009-22.522l136.133-137.134-137.134-136.133q-9.009-9.009-9.509-22.522t9.009-23.022 22.522-9.509q14.014 0 23.022 10.010l138.135 136.133 138.135-140.137q10.010-9.009 23.022-9.009t22.522 9.509 9.509 22.522-9.009 23.022z" />
<glyph unicode="&#xe65a;" glyph-name="roundrightfill" d="M512.5 831.936q-185.181 0-316.809-131.629t-131.629-316.809 131.629-316.809 316.809-131.629 316.809 131.629 131.629 316.809-131.629 316.809-316.809 131.629zM662.647 359.475l-160.156-158.154q-10.010-10.010-23.022-10.010t-22.522 9.509-9.509 23.022 10.010 22.522l137.134 136.133-136.133 137.134q-10.010 9.009-10.010 22.522t9.509 22.522 23.022 9.009 22.522-9.009l159.155-160.156q4.004-4.004 7.007-10.010v0q8.008-20.020-7.007-35.034z" />
<glyph unicode="&#xe65b;" glyph-name="roundright" d="M512.5-64.939q-185.181 0-316.809 131.629t-131.629 316.809 131.629 316.809 316.809 131.629 316.809-131.629 131.629-316.809-131.629-316.809-316.809-131.629zM512.5 767.874q-159.155 0-271.765-112.61t-112.61-271.765 112.61-271.765 271.765-112.61 271.765 112.61 112.61 271.765-112.61 271.765-271.765 112.61zM669.654 394.509v0q-3.003 6.006-7.007 10.010v0 0l-159.155 160.156q-9.009 9.009-22.522 9.009t-23.022-9.009-9.509-22.522 10.010-22.522l136.133-137.134-138.135-136.133q-9.009-9.009-9.009-22.522t9.509-23.022 22.522-9.509 22.022 10.010l161.157 158.154q15.015 15.015 7.007 35.034z" />
<glyph unicode="&#xe65c;" glyph-name="wodekaquan1" d="M1023-128h-803q-91 0-155.5 63.5t-64.5 152.5v190q0 89 64.5 152.5t155.5 63.5h803v-101l-18-5q-26-7-40.5-18t-14.5-20.5 14.5-21 40.5-17.5l18-6v-78l-18-5q-26-7-40.5-18t-14.5-21 14.5-21 40.5-18l18-5v-79l-18-5q-26-7-40.5-18t-14.5-20.5 14.5-21 40.5-17.5l18-6v-100zM220 443q-70 0-119.5-48.5t-49.5-116.5v-190q0-68 49.5-116.5t119.5-48.5h752v11q-34 13-53.5 35t-19.5 47.5 19.5 47 53.5 34.5v3q-34 13-53.5 34.5t-19.5 47.5 19.5 47.5 53.5 34.5v2q-34 13-53.5 35t-19.5 47.5 19.5 47 53.5 34.5v12h-752zM695 381h52v-102h-52v102zM695 227h52v-102h-52v102zM695 74h52v-102h-52v102zM338 657q-12 5-26 5-24 0-44-14t-28-36l-19-53 0.5 0.5t1.5 0.5q27 0 45-20l3 6q8 22 27.5 36t44.5 14q13 0 26-5l228-82h150zM625 869q-23 27-59 27-28 0-49-18l-177-148q35-15 54-48l116 124q22 18 50 18 35 0 58-27l242-288h67zM511 288l-40 32-82-103-82 103-40-32 89-112h-69v-51h76v-25h-76v-52h76v-51h51v51h77v52h-77v25h77v51h-69z" />
<glyph unicode="&#xe65d;" glyph-name="wodedingdan1" d="M168-126v811q0 87 62.5 149t150.5 62h327q88 0 150-62t62-149v-800l-137 136-72-119-97 119-96-119-70 116-94-116-70 116zM454 106l70-115 90 112 91-112 68 112 96-95v677q0 66-47.5 112.5t-113.5 46.5h-327q-67 0-114-46.5t-47-112.5v-666l70 88 70-116zM754 583v1q0 10-6.5 17t-16.5 8v0h-362q-9-2-15.5-9t-6.5-16.5 6.5-16.5 15.5-9v0h362q10 1 16.5 8t6.5 17v0 0zM754 459v0q0 10-6.5 17t-16.5 8v0h-362q-9-1-15.5-8.5t-6.5-17 6.5-16.5 15.5-8v-1h362q10 1 16.5 8.5t6.5 17.5v0 0zM754 326v1q0 9-6.5 16.5t-16.5 8.5v0h-362v-1q-9-1-15.5-8t-6.5-16.5 6.5-17 15.5-8.5v0h362q10 1 16.5 8t6.5 17v0 0z" />
<glyph unicode="&#xe65e;" glyph-name="timefill" d="M512.5 831.936q-185.181 0-316.809-131.629t-131.629-316.809 131.629-316.809 316.809-131.629 316.809 131.629 131.629 316.809-131.629 316.809-316.809 131.629zM671.656 319.436h-191.187q-13.013 0-22.522 9.509t-9.509 22.522v255.249q0 13.013 9.509 22.522t22.522 9.509 22.522-9.509 9.509-22.522v-223.218h159.155q14.014 0 23.022-9.509t9.009-22.522-9.009-22.522-23.022-9.509z" />
<glyph unicode="&#xe65f;" glyph-name="time" d="M512.5 831.936q-185.181 0-316.809-131.629t-131.629-316.809 131.629-316.809 316.809-131.629 316.809 131.629 131.629 316.809-131.629 316.809-316.809 131.629zM512.5-0.877q-104.102 0-192.688 51.55t-140.137 140.137-51.55 192.688 51.55 192.688 140.137 140.137 192.688 51.55 192.688-51.55 140.137-140.137 51.55-192.688-51.55-192.688-140.137-140.137-192.688-51.55zM672.657 383.499h-160.156v224.219q0 13.013-9.509 22.522t-22.522 9.509-22.522-9.509-9.509-22.522v-256.25q0-13.013 9.509-22.522t22.522-9.509h192.188q13.013 0 22.522 9.509t9.509 22.522-9.509 22.522-22.522 9.509z" />
<glyph unicode="&#xe660;" glyph-name="tuijianyouli1" d="M509.5-127q-89.5 0-165 44t-119.5 119.5-44 165 44 165 119.5 119.5 165 44 165-44 119.5-119.5 44-165-44-165-119.5-119.5-165-44zM509.5 484q-116.5 0-199.5-83t-83-199.5 83-199.5 199.5-83 199.5 83 83 199.5-83 199.5-199.5 83zM655 856q8 7 8 17 0 9-7 16t-16 7q-10 0-17-8v0l-135-134-135 134q-7 7-17 7-9 0-16-6.5t-7-16 7-16.5h-1l136-135-72-72-240 239h-1q-7 8-17 8-9 0-16-7t-7-16q0-10 8-17v0l256-256q7-7 16.5-7t16.5 7v0zM921 872q0 9-7 16t-17 7v0q-9 0-15-6h-1l-285-260q-8-7-8-18 0-10 7-16.5t16.5-6.5 16.5 6v0l286 260-1 1q8 7 8 17v0z" />
<glyph unicode="&#xe661;" glyph-name="xiaoxizhongxin1" d="M246 458.5q0-21.5 14.5-36.5t35.5-15 35.5 15 14.5 36.5-14.5 36.5-35.5 15-35.5-15-14.5-36.5zM448 458.5q0-21.5 14.5-36.5t35.5-15 36 15 15 36.5-15 36.5-36 15-35.5-15-14.5-36.5zM650 459v0q0-22 14.5-37t35.5-15 36 15 15 37v0q0 21-15 36t-36 15-35.5-15-14.5-36zM512 806q125 0 231-45.5t168-123.5 62-170q0-132-82.5-219.5t-228.5-111.5q-46-8-149-130-100 124-152 135-141 29-225.5 118t-84.5 208q0 92 62 170t168 123.5 231 45.5zM512 858q-139 0-257-52.5t-186.5-142.5-68.5-196q0-136 94.5-239.5t255.5-136.5q20-4 60-46t72-82.5 30-39.5q5 7 13.5 17.5t32 37.5 43 48.5 40 39.5 29.5 19q169 28 261.5 132.5t92.5 249.5q0 106-68.5 196t-186.5 142.5-257 52.5z" />
<glyph unicode="&#xe662;" glyph-name="warnfill" d="M943.922 126.247l-341.333 609.595q-35.034 63.062-90.588 63.062t-90.588-63.062l-340.332-609.595q-34.033-62.061-6.006-111.109 29.028-48.047 100.098-48.047h674.659q71.069 0 99.597 48.547t-5.505 110.608zM480.469 575.686q0 13.013 9.509 22.522t22.522 9.509 22.522-9.509 9.509-22.522v-288.282q0-13.013-9.509-22.522t-22.522-9.509-22.522 9.509-9.509 22.522v288.282zM512.5 63.186q-20.020 0-34.033 14.014t-14.014 34.033 14.014 34.033 34.033 14.014 34.033-14.014 14.014-34.033-14.014-34.033-34.033-14.014z" />
<glyph unicode="&#xe663;" glyph-name="warn" d="M849.83-33.909h-674.659q-71.069 0-99.597 49.048t5.505 111.109l340.332 609.595q35.034 63.062 90.588 63.062t90.588-63.062l341.333-609.595q34.033-63.062 5.505-111.609t-99.597-48.547zM512.5 734.842q-18.018 0-35.034-30.029l-340.332-610.596q-17.017-30.029-7.007-47.046t45.044-17.017h674.659q35.034 0 45.044 17.017t-7.007 47.046l-341.333 610.596q-16.016 30.029-34.033 30.029zM512.5 255.373q-13.013 0-22.522 9.509t-9.509 22.522v288.282q0 13.013 9.509 22.522t22.522 9.509 22.522-9.509 9.509-22.522v-288.282q0-13.013-9.509-22.522t-22.522-9.509zM464.454 143.264q0 20.020 14.014 34.033t34.033 14.014 34.033-14.014 14.014-34.033-14.014-34.033-34.033-14.014-34.033 14.014-14.014 34.033z" />
<glyph unicode="&#xe664;" glyph-name="camerafill" d="M864.845 703.811h-352.344q0 40.039-28.027 68.066t-68.066 28.027h-64.063q-40.039 0-68.066-28.027t-28.027-68.066h-96.094q-40.039 0-68.066-28.027t-28.027-68.066v-512.5q0-40.039 28.027-68.066t68.066-28.027h704.688q40.039 0 68.066 28.027t28.027 68.066v512.5q0 40.039-28.027 68.066t-68.066 28.027zM512.5 159.28q-79.077 0-135.632 56.555t-56.555 135.632 56.555 135.632 135.632 56.555 135.632-56.555 56.555-135.632-56.555-135.632-135.632-56.555zM816.798 479.592q-20.020 0-34.033 14.014t-14.014 34.033 14.014 34.033 34.033 14.014 34.033-14.014 14.014-34.033-14.014-34.033-34.033-14.014z" />
<glyph unicode="&#xe665;" glyph-name="daishouhuo" d="M678 498q200-40 203-70l7-111-78-8q-133-7-133 41v143zM712 392v97l-41 9-1-5v-143q0-19 21.5-29.5t52.5-12 62 0 53 4.5l22 4-2 33q-68-8-105-6t-50 12.5-12 35.5zM712 392v97l-41 9-1-5v-143q0-19 21.5-29.5t52.5-12 62 0 53 4.5l22 4-2 33q-68-8-105-6t-50 12.5-12 35.5zM688 463q148-38 155-45l2.5-2.5t4-6.5 2.5-11v-49q-1-3-2-6.5t-7.5-9.5-14.5-5q1 0 3.5-0.5t9.5-1 12.5 1 10.5 5.5 7 12v68q0 2-0.5 5.5t-6.5 10-19 7.5l-157 48v-21zM884 350v0q0-15-10.5-25.5t-25.5-10.5h-135q-15 0-25.5 10.5t-10.5 25.5v0 143l1 5v97q0 15-10.5 25.5t-25.5 10.5h-398q-15 0-25.5-10.5t-10.5-25.5v0-405q0-15 10.5-25t25.5-10h605q15 0 25.5 10t10.5 25zM730 194h-436q-15 0-25.5 10.5t-10.5 24.5v0 402h-14q-15 0-25.5-10.5t-10.5-25.5v0-405q0-15 10.5-25t25.5-10h605q15 0 25.5 10t10.5 25v4h-155zM309 142q0-31 22-53t53-22 53 22 22 53-22 52.5-53 21.5-53-21.5-22-52.5zM384 53q-37 0-63 26t-26 62.5 26 62.5 63 26 63-26 26-62.5-26-62.5-63-26zM384 202q-25 0-42.5-17.5t-17.5-42.5 17.5-43 42.5-18 43 18 18 43-18 42.5-43 17.5zM589 140v2q0 14 4 27h-124q4-13 4-27v0-2h116zM885 238v0q-6 0-10.5-4t-4.5-10v0-34q0-9-6-15t-15-6h-87q5-13 5-27v0-2h82q21 0 35.5 15t14.5 35v34q0 6-4 10t-10 4zM496 512h-163q-6 0-10 4.5t-4 10.5 4 10 10 4h163q6 0 10.5-4t4.5-10-4.5-10.5-10.5-4.5zM453 403h-164q-6 0-10 4.5t-4 10.5 4 10 10 4v0h164q6 0 10-4t4-10-4-10.5-10-4.5zM496 295h-164q-5 0-9.5 4t-4.5 10 4.5 10 9.5 4h164q6 0 10.5-4t4.5-10-4.5-10-10.5-4zM70 569q0-14-10-14t-10 14v32q0 13 10 13t10-13v-32zM76 595q14 0 14-10t-14-10h-32q-13 0-13 10t13 10h32zM759 692q0-9-6.5-9t-6.5 9v22q0 9 6.5 9t6.5-9v-22zM763 709q9 0 9-6.5t-9-6.5h-22q-9 0-9 6.5t9 6.5h22zM924 494q0-7-5-7t-5 7v16q0 7 5 7t5-7v-16zM927 507q7 0 7-5t-7-5h-16q-7 0-7 5t7 5h16zM881 672.5q0-6.5 7-6.5t7 6.5-7 6.5-7-6.5zM162.5 676q9.5 0 9.5-10t-9.5-10-9.5 10 9.5 10zM163 681h-1q-6 0-10.5-4.5t-4.5-10.5 4.5-10.5 10.5-4.5h1q6 0 10 4.5t4 10.5-4 10.5-10 4.5zM1008.5 607q9.5 0 9.5-10 0-9-9.5-9t-9.5 9q0 10 9.5 10zM1008 612q-6 0-10.5-4.5t-4.5-10.5 4.5-10.5 10.5-4.5 10.5 4.5 4.5 10.5-4.5 10.5-10.5 4.5zM45 331.5q0-6.5 4.5-10.5t10.5-4 10.5 4 4.5 10.5-4.5 11-10.5 4.5-10.5-4.5-4.5-11zM318 750q0-3-3-3v0q-3 0-3 3v0 6q0 4 3 4t3-4v0-6zM309 749q1-1 1-2t-1-2-2.5-1-2.5 1l-5 5q-1 0-1 2 0 3 4 3 1 0 2-1zM302 742q3 0 3-3t-3-3v0h-6q-3 0-3 3t3 3h6zM303 733h2q3 0 3-3 0-1-1-2l-4-5h-2.5t-2.5 0.5-1 2 1 2.5zM310 726q0 3 3 3t3-3v0-6q0-4-3-4t-3 4v0 6zM319 727v2q0 3 3 3 1 0 2-1l5-4q1-1 1-3 0-3-4-3-1 0-2 1zM326 734q-3 0-3 3t3 3h6q4 0 4-3t-4-3v0h-6zM325 743h-2q-3 0-3 3 0 1 1 2l5 5q0 1 1.5 1t2.5-1 1-2.5-1-2.5zM970 365q0-3-3.5-3t-3.5 3v7q1 3 4 3v0q3 0 3-3v-7zM960 365q1-1 1-2.5t-1-2.5-2-1-2 1l-5 5q-1 1-1 2 0 3 3 3 2 0 3-1zM954 357q3 0 3-3t-3-3h-7q-3 0-3 3t3 3h7zM954 348q1 1 3 1 3 0 3-3 0-2-1-3l-5-4q-1-1-2-1t-2 1-1 2 1 2zM962 341q0 4 3 4t3-4v0-6q0-3-3-3v0q-4 0-4 3v0zM971 342q-1 1-1 2.5t1 2 2.5 0.5 2.5-1l4-4q1-1 1-2 0-4-3-4-1 0-2 1zM977 349q-3 0-3 3.5t4 3.5v0l6-1q3 0 3-3v0q0-3-3-3v0h-7zM977 359q-1-1-2.5-1t-2.5 1-1 2 1 2l5 5q1 1 2 1 4 0 4-3 0-2-1-3zM1001 34h-76q-4 0-7 3t-3 7.5 3 7.5 7 3h76q10 0 10-10.5t-10-10.5zM892 34h-15q-4 0-7 3t-3 7.5 3 7.5 7 3h15q10 0 10-10.5t-10-10.5zM843 34h-721q-4 0-7 3t-3 7.5 3 7.5 7 3h721q11 0 11-10.5t-11-10.5zM84 34h-69q-5 0-8 3t-3 7.5 3 7.5 8 3v0h69q11 0 11-10.5t-11-10.5zM603 142q0-31 22-53t53-22 52.5 22 21.5 53-21.5 52.5-52.5 21.5-53-21.5-22-52.5zM677.5 53q-36.5 0-62.5 26t-26 62.5 26 62.5 62.5 26 63-26 26.5-62.5-26.5-62.5-63-26zM678 202q-25 0-43-17.5t-18-42.5 18-43 43-18 42.5 18 17.5 43-17.5 42.5-42.5 17.5zM869 458q-1 1-3 2l-174 51v84q0 21-14.5 35.5t-35.5 14.5h-398q-21 0-35.5-14.5t-14.5-35.5v-405q0-20 14.5-35t35.5-15h51v2q0 14 5 27h-56q-9 0-15 6t-6 15v405q0 9 6 15.5t15 6.5h398q9 0 15-6.5t6-15.5v-245q0-21 14.5-35.5t35.5-14.5h135q12 0 22 5v-19q0-6 4.5-10t10.5-4 10 4 4 10v127q0 13-8.5 26.5t-21.5 18.5zM870 350q0-9-6.5-15.5t-15.5-6.5h-135q-9 0-15.5 6.5t-6.5 15.5v131l166-48 1-1q12-5 12-19v0-63z" />
<glyph unicode="&#xe666;" glyph-name="shouhuochenggong" d="M546 640v6q-1 12 1.5 21t6.5 12l3 3 2 1 66 47q10 7 17-2l41-60q7-9-4-16l-66-46-2-1q-14-10-37 1-3 1-6 3l-2 1.5t-4.5 4-6 6.5-6 9-3.5 10zM505 219q2-9-2-17t-12-9l-236-52q-8-2-15.5 3.5t-9.5 14.5l-67 309q-2 9 2 16.5t12 9.5l236 52q8 1 15.5-4t9.5-14zM278 173q-8-1-15 4t-9 14l-65 297-18-4q-8-1-12-9t-2-17l67-309q2-9 9.5-14t15.5-4l236 52q8 2 12 9.5t2 17.5l-2 11zM329 510l-16-331 55 12v333l-39-11v-3zM251 129q-11 0-20.5 7.5t-11.5 19.5l-68 309q-3 14 4 26t20 15l236 51q13 3 25-5 11-8 14-22l67-308q3-14-3-26-7-12-21-15l-173-38h-2q-5 0-8.5 3.5t-3.5 8.5q0 9 9 11l173 38q3 1 5 4 2 4 1 9l-68 308q-1 5-4 8-3 2-6 1l-236-52q-8-1-6-12l68-309q2-10 10-8l15 3h2q5 0 8.5-3.5t3.5-8.5q0-9-9-12l-15-3h-6zM253 376q0-8 5.5-13t13-5 13 5 5.5 13-5.5 13-13 5-13-5-5.5-13zM333 311h-1q-5 0-10 2h-1q-17 5-24 11-5 4-5 10 0 5 3.5 8.5t8.5 3.5q4 0 7-3 5-3 17-7v0h1q8-3 14 3 8 7 12 13 3 7 10 7 3 0 6-2 11-5 5-16-4-8-17-20-11-10-26-10zM540 219q-2-9 2-17t12-9l236-52q8-2 15.5 3.5t9.5 14.5l67 309q2 9-2 16.5t-12 9.5l-236 52q-8 1-15.5-4t-9.5-14zM722 510l16-331-54 12v333l38-11v-3zM767 173q8-1 15 4t9 14l65 297 18-4q8-1 12.5-9t2.5-17l-68-309q-2-9-9-14t-16-4l-235 52q-9 2-13 9.5t-2 17.5l2 11zM794 129v0h-6l-16 4q-10 2-10 11 0 5 3.5 8.5t8.5 3.5h3l16-3q8-2 10 8l68 309q2 11-6 12l-236 52q-3 1-5-1-4-3-5-8l-68-308q-1-5 1-9 2-3 5-4l178-39q9-2 9-11v-3q-2-9-12-9h-2l-178 39q-13 3-20 15t-4 26l68 308q3 14 13 22 12 8 25 5l236-51q13-3 20-15t4-26l-67-309q-3-12-12-19.5t-21-7.5zM755 376q0-8 5.5-13t13-5 13 5 5.5 13-5.5 13-13 5-13-5-5.5-13zM653 398.5q0-7.5 5.5-13t13-5.5 12.5 5.5 5 13-5 13-12.5 5.5-13-5.5-5.5-13zM712 311q-15 0-26 10-12 12-17 20-1 3-1 6 0 5 3.5 8.5t8.5 3.5q7 0 10-7 3-5 12-13 6-6 15-3v0q12 4 17 7 3 3 7 3 6 0 10-5 7-10-3-17-7-6-23-11h-2q-5-2-10-2h-1zM33 452q0-11-8-11t-8 11v27q0 11 8 11t8-11v-27zM38 474q12 0 12-8.5t-12-8.5h-27q-11 0-11 8.5t11 8.5h27zM89 348.5q0-9.5 9.5-9.5t9.5 9.5-9.5 9.5-9.5-9.5zM111 542q8 0 8-8t-8-8-8 8 8 8zM111 547v0q-5 0-9-4t-4-9 4-9 9-4v0q5 0 9 4t4 9-4 9-9 4zM12 252.5q0-5.5 4-9t9-3.5 9 3.5 4 9-4 9-9 3.5-9-3.5-4-9zM242 605q0-3-2.5-3t-2.5 3v5q0 3 2.5 3t2.5-3v0-5zM234 604q1-1 1-2t-1-1.5-2-0.5h-2l-4 4v2t0.5 2 2 1 1.5-1zM229 598q2 0 2-2.5t-2-2.5h-6q-2 0-2 2.5t2 2.5v0h6zM229 590q1 1 2 1t2-1 1-2-1-2l-4-4h-2t-1.5 0.5-0.5 2v1.5zM235 585q0 2 3 2t3-2v-6q0-2-3-2t-3 2v0 6zM243 585v2q0 3 2 3 1 0 2-1l4-4q1-1 1-2t-1-2-2-1-2 1zM249 591q-3 0-3 3t3 3h5q3 0 3-3t-3-3v0h-5zM248 599h-2q-2 0-2 2 0 1 1 2l3 4q1 1 2 1 3 0 3-3 0-1-1-2zM801 577q0-7-5.5-7t-5.5 7v18q0 8 5.5 8t5.5-8v-18zM805 592q7 0 7-5.5t-7-5.5h-19q-7 0-7 5.5t7 5.5h19zM940 410q0-6-4-6t-4 6v14q0 6 4 6t4-6v-14zM943 421q6 0 6-4t-6-4h-14q-6 0-6 4t6 4h14zM904 561q0-6 5.5-6t5.5 6-5.5 6-5.5-6zM1011 506q8 0 8-8.5t-8-8.5-8 8.5 8 8.5zM1011 510v0q-6 0-9.5-3.5t-3.5-9 3.5-9 9.5-3.5v0q5 0 8.5 3.5t3.5 9-3.5 9-8.5 3.5zM979 302q0-3-3-3v0q-3 0-3 3v0 5q0 3 3 3t3-3v0-5zM971 301v-1q0-3-2-3t-2 1l-4 4q-1 0-1 1.5t1 2 2 0.5 2-1zM965 295q3 0 3-2v0q0-3-3-3v0h-5q-3 0-3 3v0q0 3 3 3v0zM966 287q0 1 1 1 3 0 3-3 0-1-1-1l-4-4q0-1-1.5-1t-2 0.5-0.5 2 1 2.5zM972 282q0 3 2 3v0q3 0 3-3v0-6q0-2-2.5-2t-2.5 2v0 6zM980 282q-1 1-1 2 0 3 3 3 1 0 2-1l3-4q1-1 1-2 0-2-3-2h-1zM985 288q-3 1-3 3.5t3 2.5v0h6q2 0 2-3t-2-3h-6zM985 297q-1-1-2-1t-2 0.5-1 2 1 1.5l4 4q1 1 2 1t1.5-1 0.5-2v-2zM935 96h-63q-9 0-9 9t9 9h63q9 0 9-9t-9-9zM844 96h-13q-9 0-9 9t9 9h13q9 0 9-9t-9-9zM803 96h-608q-9 0-9 9t9 9h608q9 0 9-9t-9-9zM163 96h-58q-9 0-9 9t9 9h58q9 0 9-9t-9-9zM613 599v0q-7 0-7 7 0 4 3 6l66 47q2 1 2 3 1 2 0 3l-41 59q-1 1-3 1v0q-2 0-4-1l-66-46q-2-2-4-2-7 0-7 8 0 4 3 6l66 46q5 4 12 4h2q8-1 13-7l41-60q5-6 3-14t-9-13l-66-46q-2-1-4-1v0zM596 594q-12 0-25 6l-6 2q-4 2-4 7 0 8 7 8 2 0 3-1l6-2v-1q19-8 30-2 2 1 4 1 4 0 7-3 1-2 1-4 0-4-4-6-7-5-19-5zM546 633q-7 0-7 7-1 3-1 6-2 30 15 43 2 1 4 1 8 0 8-7 0-4-3-6-11-9-9-29v-1q0-3 1-6v0q0-8-8-8v0zM613 599v0q-7 0-7 7 0 4 3 6l66 47q2 1 2 3 1 2 0 3l-41 59q-1 1-3 1v0q-2 0-4-1l-66-46q-2-2-4-2-7 0-7 8 0 4 3 6l66 46q5 4 12 4h2q8-1 13-7l41-60q5-6 3-14t-9-13l-66-46q-2-1-4-1v0zM596 594q-12 0-25 6l-6 2q-4 2-4 7 0 8 7 8 2 0 3-1l6-2v-1q19-8 30-2 2 1 4 1 4 0 7-3 1-2 1-4 0-4-4-6-7-5-19-5zM546 633q-7 0-7 7-1 3-1 6-2 30 15 43 2 1 4 1 8 0 8-7 0-4-3-6-11-9-9-29v-1q0-3 1-6v0q0-8-8-8v0zM598 664v0q5 0 8.5-3.5t3.5-8.5-3.5-8.5-8.5-3.5v0q-5 0-8.5 3.5t-3.5 8.5 3.5 8.5 8.5 3.5v0zM598 676q-8 0-14-4-10-7-10-20 0-7 4-14 7-10 20-10 7 0 14 4 8 6 10 16v4q0 8-4 14-8 10-20 10zM531 567q-7 0-7 7-1 13 4 25t11.5 19.5 15 13.5 12.5 8l6 3t3 1q8 0 8-8 0-5-5-7-1 0-4.5-1.5t-10.5-7-12.5-11-9.5-15-3-19.5v-1q0-7-8-7v0zM684 178q0-11-6.5-18.5t-15.5-7.5h-272q-9 0-15.5 7.5t-6.5 18.5v355q0 10 6.5 17.5t15.5 7.5h272q9 0 15.5-7.5t6.5-17.5v-355zM670 558q23 0 23-16v-355q0-11-6.5-18.5t-16.5-7.5h-20v342q1 2 0.5 5t-2 11.5-4 15.5-9 14-16.5 9h51zM424 182q-10 0-16.5 7.5t-6.5 17.5v342h-20q-9 0-15.5-7.5t-6.5-17.5v-355q0-11 6.5-18.5t15.5-7.5h272q9 0 15.5 7.5t6.5 18.5v13h-251zM684 260q-5 0-8.5 3.5t-3.5 8.5v261q0 5-3 9t-7 4h-32q-5 0-8.5 3.5t-3.5 8.5 3.5 8.5 8.5 3.5h32q14 0 24-11t10-26v-261q0-5-3.5-8.5t-8.5-3.5v0zM445 406q0-8 6-14t14.5-6 14.5 6 6 14-6 14-14.5 6-14.5-6-6-14zM603 406v0q0-9-6-15t-14.5-6-14 6-5.5 15v0q0 8 6 14t14 6 14-6 6-14zM527 321q-12 0-22 5v0h-1q-16 10-22 18-3 3-3 7 0 5 3.5 8.5t8.5 3.5 9-3q4-6 16-13h1q10-5 18 0 11 6 17 12 4 4 9 4 4 0 8-3t4-9q0-4-3-7-7-9-23-18-9-5-20-5v0zM662 140h-272q-14 0-24 11t-10 27v355q0 15 10 26t24 11h181q4 0 7.5-3.5t3.5-8.5-3.5-8.5-7.5-3.5h-181q-4 0-7-4t-3-9v-355q0-6 3-10t7-4h272q4 0 7 4t3 10v52q0 5 3.5 8.5t8.5 3.5 8.5-3.5 3.5-8.5v-52q0-16-10-27t-24-11z" />
<glyph unicode="&#xe667;" glyph-name="yijianfankui1" d="M589 845h-384q-64 0-109-45t-45-109v-614q0-64 45-109t109-45h614q64 0 109 45t45 109v384h51v-384q0-85-60-145t-145-60h-614q-85 0-145 60t-60 145v614q0 85 60 145t145 60h384v-51zM530 366l-36 36 486 486 36-36zM380 190l-33 39 96 96 36-36z" />
<glyph unicode="&#xe668;" glyph-name="shezhi1" horiz-adv-x="1026" d="M512-128q-51 0-102 10l-21 4v102q-79 25-142 77v-120l-17 12q-136 91-195 240l39-78 72 72q-38 70-46 153l-85-83-5 21q-10 48-10 102t11 106l4 17h102q25 79 76 141l-119 1 11 17q91 136 240 195l-78-38 72-72q70 37 152 45l-82 86 21 4q48 10 102 10t106-11l17-3v-102q80-25 142-77v120l17-12q136-90 195-240l-38 78-72-72q38-70 45-152l86 82 4-21q10-48 10-102t-11-106l-3-17h-102q-25-79-77-142h120l-12-17q-90-136-240-195l78 38-72 72q-70-37-152-45l82-86-20-4q-49-10-103-10v0zM440-71q72-12 144 0v98l19 5q81 21 143 74l-32-25 69-70q108 79 157 201l-125-29 10 17q42 69 49 152l-5-40h99q5 34 5 72t-6 74l-98-2-5 19q-21 81-74 143l25-33 70 70q-79 107-200 156l29-124-17 10q-69 41-152 49l39-5v98q-34 6-72 6-37 0-74-6l2-98-19-5q-80-21-142-74l32 25-70 70q-107-79-156-200l124 28-10-17q-41-69-49-151l6 39h-99q-6-34-6-72t6-74l99 2 4-19q22-81 74-143l-25 33-69-70q78-107 200-156l-29 124 17-10q69-41 151-49l-39 5v-98zM512.5 150q-96.5 0-165 68.5t-68.5 165.5 68.5 165.5 165 68.5 165-68.5 68.5-165.5-68.5-165.5-165-68.5zM512 567q-75-1-128.5-54t-53.5-129 53.5-129 129-53 129 53 53.5 129-53.5 129-129.5 54v0z" />
<glyph unicode="&#xe669;" glyph-name="guanyingxiaoxi" d="M511.5 894q-103.5 0-198-40.5t-162.5-108.5-108.5-162.5-40.5-198 40.5-198 108.5-162.5 162.5-108.5 198-40.5 198 40.5 162.5 108.5 108.5 162.5 40.5 198-40.5 198-108.5 162.5-162.5 108.5-198 40.5zM842 497q-38-12-62-44t-24-73 24-73 62-44v-36q0-42-28-72t-68-30h-442q-39 0-67.5 30t-28.5 72v33q42 9 69.5 42.5t27.5 77.5-27.5 77.5-69.5 41.5v34q0 42 28.5 72t67.5 30h442q40 0 68-30t28-72v-36zM586 418l-65 38q-28 16-47.5 4.5t-19.5-42.5v-76q0-31 19.5-42.5t47.5 4.5l65 38q27 15 27 37.5t-27 38.5z" />
<glyph unicode="&#xe66a;" glyph-name="weitianjiashouhuodizhi" d="M512 423q44 0 74.5 30.5t30.5 74.5-30.5 74.5-74.5 30.5-74.5-30.5-30.5-74.5 30.5-74.5 74.5-30.5zM512 597q29 0 49-20t20-49-20-49-49-20-49 20-20 49 20 49 49 20zM512 896q-103 0-197.5-40.5t-162.5-108.5-108.5-162-40.5-197.5 40.5-197.5 108.5-162.5 162.5-108.5 197.5-40 197.5 40 162.5 108.5 108.5 162.5 40.5 197.5-40.5 197.5-108.5 162-162.5 108.5-197.5 40.5zM510 724q97 0 165.5-68t68.5-165q0-36-24-83t-58.5-88-69-76.5-58.5-56.5l-24-21q-9 8-25 22t-56 54.5-71 78.5-56.5 86-25.5 84q0 97 68.5 165t165.5 68zM512 70q-102 0-187.5 24.5t-134.5 67.5-49 95q0 64 74 114l4 2q5 3 11 3 8 0 14-6t6-14q0-11-9-17-2-1-3-2-56-38-56-80 0-39 45-73t121-53.5 164-19.5 164 19.5 121 53.5 45 73q0 43-57 81-10 6-10 17 0 8 6 14t15 6q6 0 11-3 76-50 76-115 0-52-49-95t-134.5-67.5-187.5-24.5z" />
<glyph unicode="&#xe66b;" glyph-name="like" d="M512.5-32.908q-45.044 0-87.085 41.040l-319.312 323.316q-25.024 31.030-37.537 49.548t-24.524 54.053-12.012 76.575q0 106.104 75.073 181.177t181.177 75.073q81.079 0 147.144-47.046 11.011-7.007 13.513-20.020t-5.505-24.023-21.021-13.513-24.023 5.505q-49.048 35.034-110.108 35.034-79.077 0-135.632-56.555t-56.555-135.632q0-43.042 13.013-70.068t46.045-69.067l316.309-319.312q22.022-22.022 41.040-22.022 18.018 0 41.040 23.022l317.31 320.313q58.057 62.061 58.057 137.134 0 79.077-56.555 135.632t-135.632 56.555q-75.073 0-130.127-50.049l-134.131-134.131q-9.009-10.010-22.022-10.010t-22.522 9.509-9.509 22.522 9.009 23.022l135.132 135.132q75.073 68.066 174.17 68.066 106.104 0 181.177-75.073t75.073-181.177q0-100.098-76.074-182.178l-317.31-320.313q-42.041-42.041-87.085-42.041z" />
<glyph unicode="&#xe66c;" glyph-name="notificationfill" d="M526.514-28.904q-31.030 0-69.067 37.036l-182.178 183.179h-83.081q-40.039 0-68.066 28.027t-28.027 68.066v192.188q0 40.039 28.027 68.066t68.066 28.027h83.081l182.178 183.179q37.036 37.036 69.067 37.036 20.020 0 35.034-15.015t15.015-45.044v-704.688q0-31.030-15.015-45.544t-35.034-14.514zM688.673 165.285q-11.011 0-19.019 6.006-11.011 7.007-13.013 20.52t6.006 23.523l12.012 18.018q22.022 29.028 32.031 45.044t20.020 45.044 10.010 60.059q0 33.032-9.009 60.559t-18.518 42.542-29.529 42.041q-10.010 13.013-17.017 23.022-8.008 10.010-6.006 23.523t13.013 21.021 24.023 5.505 21.021-13.013q4.004-7.007 16.016-21.021 23.022-31.030 34.534-49.548t23.523-55.554 12.012-79.077q0-41.040-13.013-79.077t-25.024-57.556-36.035-51.55l-12.012-17.017q-10.010-13.013-26.025-13.013zM796.778 56.179q-12.012 0-21.021 8.008-10.010 9.009-10.51 22.022t7.507 23.022q58.057 66.065 91.089 130.127t33.032 144.141-33.032 144.141-91.089 130.127q-8.008 10.010-7.507 23.022t10.51 22.022 23.523 8.008 22.522-11.011q63.062-73.071 101.099-147.644t38.037-168.665-38.037-168.665-101.099-147.644q-10.010-11.011-25.024-11.011z" />
<glyph unicode="&#xe66d;" glyph-name="notification" d="M526.514-28.904q-31.030 0-69.067 37.036l-182.178 183.179h-83.081q-40.039 0-68.066 28.027t-28.027 68.066v192.188q0 40.039 28.027 68.066t68.066 28.027h83.081l182.178 183.179q37.036 37.036 69.067 37.036 20.020 0 35.034-15.015t15.015-45.044v-704.688q0-31.030-15.015-45.544t-35.034-14.514zM192.188 511.624q-13.013 0-22.522-9.509t-9.509-22.522v-192.188q0-13.013 9.509-22.522t22.522-9.509h96.094q13.013 0 23.022-9.009l201.196-201.196v676.661q-5.005-4.004-9.009-9.009l-192.188-192.188q-10.010-9.009-23.022-9.009h-96.094zM688.673 165.285q-11.011 0-19.019 6.006-11.011 7.007-13.013 20.52t6.006 23.523l12.012 18.018q22.022 29.028 32.031 45.044t20.020 45.044 10.010 60.059q0 33.032-9.009 60.559t-18.518 42.542-29.529 42.041q-10.010 13.013-17.017 23.022-8.008 10.010-6.006 23.523t13.013 21.021 24.023 5.505 21.021-13.013q4.004-7.007 16.016-21.021 23.022-31.030 34.534-49.548t23.523-55.554 12.012-79.077q0-41.040-13.013-79.077t-25.024-57.556-36.035-51.55l-12.012-17.017q-10.010-13.013-26.025-13.013zM796.778 56.179q-12.012 0-21.021 8.008-10.010 9.009-10.51 22.022t7.507 23.022q58.057 66.065 91.089 130.127t33.032 144.141-33.032 144.141-91.089 130.127q-8.008 10.010-7.507 23.022t10.51 22.022 23.523 8.008 22.522-11.011q63.062-73.071 101.099-147.644t38.037-168.665-38.037-168.665-101.099-147.644q-10.010-11.011-25.024-11.011z" />
<glyph unicode="&#xe66e;" glyph-name="shipinqueshen" d="M608 506q0-13 9-22t22-9h96v1l-127 126v-96zM516 892q-103 0-197-40t-162-108.5-108.5-162.5-40.5-197 40.5-197 108.5-162.5 162-108.5 197-40 197.5 40 162.5 108.5 108 162.5 40 197-40 197-108 162.5-162.5 108.5-197.5 40zM759 184q0-18-12.5-30.5t-30.5-12.5h-400q-18 0-30.5 12.5t-12.5 30.5v400q0 18 12.5 30.5t30.5 12.5h302l141-141v-302zM584 506v97h-268q-8 0-13.5-5.5t-5.5-13.5v-400q0-8 5.5-13.5t13.5-5.5h400q8 0 13.5 5.5t5.5 13.5v266h-96q-23 0-39 16.5t-16 39.5zM357 203h-40v41h40v-41zM357 286h-40v40h40v-40zM357 368h-40v41h40v-41zM357 451h-40v40h40v-40zM357 533h-40v41h40v-41zM592 348l-103-59q-10-6-20-6-12 0-20 8.5t-8 24.5v120q0 16 8 24.5t20 8.5q10 0 20-6l103-59q18-11 18-28t-18-28zM666 409h41v-41h-41v41zM666 326h41v-40h-41v40zM666 244h41v-41h-41v41z" />
<glyph unicode="&#xe66f;" glyph-name="shangchengxiaoxi" d="M585 453.5q-12 5.5-18-6.5-14-30-50-30-35 0-49 29-6 12-18 6.5t-7-17.5q10-20 30-32t44-12q25 0 45 12t30 33q5 12-7 17.5zM512 893q-104 0-198-40t-162.5-108.5-108.5-162.5-40-198 40-198 108.5-162.5 162.5-108.5 198-40 198 40 162.5 108.5 108.5 162.5 40 198-40 198-108.5 162.5-162.5 108.5-198 40zM783 186q0-26-13.5-48t-36.5-34q-11-5-60-5h-346q-31 0-53.5 25.5t-22.5 61.5v331q0 36 22.5 61t53.5 25h52q2 21 4 39 15 109 62 109h145q47 0 62-109 2-18 4-39h51q31 0 53.5-25t22.5-61v-331zM625 639q-4 30-10.5 50t-12.5 28-12 8h-145q-6 0-12-8t-12.5-28-10.5-50q-2-18-3-36h221q-1 18-3 36zM404 519q0 47 3 84v0h-28q-2-37-3-84-17-8-17-27 0-12 9-20.5t22-8.5 22 8.5 9 20.5q0 19-17 27zM676 492q0 19-17 27-1 47-3 84h-28l1-1q2-36 2-83-17-8-17-27 0-12 9-20.5t22-8.5 22 8.5 9 20.5zM711.5 273q-5.5 0-9.5-4t-4-9v-12q0-14-10-23.5t-24-9.5q-5 0-9-4t-4-9.5 4-9 9-3.5q26 0 43.5 17t17.5 42v12q0 5-4 9t-9.5 4z" />
<glyph unicode="&#xe670;" glyph-name="zhaopiantuku" horiz-adv-x="1029" d="M929 15h-829q-41 0-70.5 31.5t-29.5 77.5v544q0 46 29.5 77.5t70.5 31.5h829q41 0 70.5-31.5t29.5-77.5v-442q0-8-5-13t-12.5-5-13 5-5.5 13v442q0 31-18.5 52.5t-45.5 21.5h-829q-27 0-45.5-21.5t-18.5-52.5v-544q0-31 18.5-52.5t45.5-21.5h829q27 0 45.5 21.5t18.5 52.5v19q0 8 5.5 13t13 5 12.5-5 5-13v-19q0-46-29.5-77.5t-70.5-31.5zM631 110h-1q-7 0-12 5l-344 344q-18 18-46.5 16.5t-49.5-22.5l-137-137q-5-5-12.5-5t-12.5 5.5-5 12.5 5 13l136 136q32 32 75 33.5t73-27.5l343-343q5-6 5-13t-5-12.5-12-5.5zM580 161v0q-8 0-13 5t-5 12.5 5 12.5l189 189q31 31 74 34 43 2 73-28l120-119q5-6 5-13.5t-5.5-12.5-12.5-5-13 5l-119 120q-19 18-46 17-29-2-51-23l-189-189q-5-5-12-5v0zM648 470q-33 0-56.5 23.5t-23.5 56.5 23.5 56.5 56.5 23.5q25 0 46-15 8-6 8-15 0-7-5.5-12.5t-12.5-5.5q-6 0-11 4-11 8-25 8v0q-19 0-31.5-13t-12.5-31.5 12.5-31.5 31-13 31.5 13 13 32v0q0 6-2 13-1 2-1 5 0 8 5 13t13 5q13 0 17-13 4-11 4-23v0q0-33-23.5-56.5t-56.5-23.5z" />
<glyph unicode="&#xe671;" glyph-name="xiangji" horiz-adv-x="1026" d="M352 285q-7 0-12.5 5t-5.5 13q0 75 53.5 129t129.5 54v0q8 0 13-5.5t5-13-5-12.5-13-5v0q-61 0-104-43.5t-43-103.5q0-8-5.5-13t-12.5-5zM515 34q-111 0-189.5 79t-78.5 189.5 78.5 189.5 189.5 79 189.5-79 78.5-189.5-78.5-189.5-189.5-79zM515 535q-96 0-164.5-68t-68.5-164 68.5-164.5 164.5-68.5 164 68.5 68 164.5-68 164-164 68zM929 74h-148q-7 0-12.5 5t-5.5 12.5 5.5 12.5 12.5 5v0h148q25 0 43 18t18 43v422q0 25-18 42.5t-43 17.5h-219q-20 0-29 17l-45 76q-22 39-66 39h-110q-44 0-67-38l-44-77q-10-17-29-17h-220q-25 0-43-17.5t-18-42.5v-422q0-25 18-43t43-18h144q7 0 12.5-5t5.5-12.5-5.5-12.5-12.5-5v0h-144q-40 0-68.5 28t-28.5 68v422q0 40 28.5 68t68.5 28h218l44 75q15 26 41 41.5t57 15.5h110q30 0 56-15.5t41-41.5l44-75h218q40 0 68.5-28t28.5-68v-422q0-40-28.5-68t-68.5-28v0zM928 555h-77q-8 0-13 5.5t-5 13 5 12.5 13 5v0h77q8 0 13-5t5-12.5-5-13-13-5.5v0z" />
<glyph unicode="&#xe672;" glyph-name="right2" d="M303-15l1 1q0 1 0.5 1h0.5l372 395-1 2 0.5 0.5t0.5 1.5l-372 394q-6 5-6 13 0 7 4.5 11.5t11.5 4.5q5 0 9-3l1 1 384-407q8-10 8-16 0-9-8-15l-380-405h-1q-5-5-12-5t-12 4.5-5 11.5q0 5 4 10v0z" />
</font>
</defs>
</svg>
